<?xml version="1.0" standalone="no"?>
<!DOCTYPE svg PUBLIC "-//W3C//DTD SVG 1.1//EN" "http://www.w3.org/Graphics/SVG/1.1/DTD/svg11.dtd" >
<svg xmlns="http://www.w3.org/2000/svg" xmlns:xlink="http://www.w3.org/1999/xlink" version="1.1">
<metadata>
Created by FontForge 20170731 at Fri Jun  9 15:07:28 2017
 By Aleksey,,,
(c) Nolan Paparelli, 2017
</metadata>
<defs>
<font id="Everett-Regular" horiz-adv-x="560" >
  <font-face 
    font-family="Everett Regular"
    font-weight="400"
    font-stretch="normal"
    units-per-em="1000"
    panose-1="2 11 5 4 0 0 0 0 0 0"
    ascent="820"
    descent="-180"
    x-height="500"
    cap-height="690"
    bbox="-70 -245 2369 879"
    underline-thickness="66"
    underline-position="-248"
    unicode-range="U+0020-FB04"
  />
<missing-glyph horiz-adv-x="570" 
d="M87 0v690h396v-690h-396zM99 22l178 323l-178 323v-646zM109 678l176 -319l176 319h-352zM471 668l-178 -323l178 -323v646zM461 12l-176 319l-176 -319h352z" />
    <glyph glyph-name="f_f" unicode="ff" horiz-adv-x="680" 
d="M453 0v434h-257v-434h-83v434h-91v66h91v78q0 54 26.5 83t89.5 29h90v-66h-67q-31 0 -43.5 -13t-12.5 -42v-69h257v78q0 54 26.5 83t89.5 29h90v-66h-67q-31 0 -43.5 -13t-12.5 -42v-69h127v-66h-127v-434h-83z" />
    <glyph glyph-name="f_i" unicode="fi" horiz-adv-x="575" 
d="M409 593v97h97v-97h-97zM416 0v434h-220v-434h-83v434h-91v66h91v78q0 54 26.5 83t89.5 29h90v-66h-67q-31 0 -43.5 -13t-12.5 -42v-69h303v-500h-83z" />
    <glyph glyph-name="f_l" unicode="fl" horiz-adv-x="575" 
d="M416 0v624h-164q-31 0 -43.5 -13t-12.5 -42v-69h127v-66h-127v-434h-83v434h-91v66h91v78q0 54 26.5 83t89.5 29h270v-690h-83z" />
    <glyph glyph-name="f_f_i" unicode="ffi" horiz-adv-x="915" 
d="M749 593v97h97v-97h-97zM453 0v434h-257v-434h-83v434h-91v66h91v78q0 54 26.5 83t89.5 29h90v-66h-67q-31 0 -43.5 -13t-12.5 -42v-69h257v78q0 54 26.5 83t89.5 29h90v-66h-67q-31 0 -43.5 -13t-12.5 -42v-69h303v-500h-83v434h-220v-434h-83z" />
    <glyph glyph-name="f_f_l" unicode="ffl" horiz-adv-x="915" 
d="M453 0v434h-257v-434h-83v434h-91v66h91v78q0 54 26.5 83t89.5 29h90v-66h-67q-31 0 -43.5 -13t-12.5 -42v-69h257v78q0 54 26.5 83t89.5 29h90v-66h-67q-31 0 -43.5 -13t-12.5 -42v-69h220v190h83v-690h-83v434h-220v-434h-83z" />
    <glyph glyph-name="f_t" unicode="ft" horiz-adv-x="686" 
d="M452 112v322h-256v-434h-83v434h-91v66h91v78q0 54 26.5 83t89.5 29h90v-66h-67q-31 0 -43.5 -13t-12.5 -42v-69h256v114h83v-114h127v-66h-127v-313q0 -29 12.5 -42t43.5 -13h67v-66h-90q-63 0 -89.5 29t-26.5 83z" />
    <glyph glyph-name="t_t" unicode="tt" horiz-adv-x="692" 
d="M458 112v322h-263v-313q0 -29 12.5 -42t43.5 -13h67v-66h-90q-63 0 -89.5 29t-26.5 83v322h-91v66h91v114h83v-114h263v114h83v-114h127v-66h-127v-313q0 -29 12.5 -42t43.5 -13h67v-66h-90q-63 0 -89.5 29t-26.5 83z" />
    <glyph glyph-name="t_f" unicode="tf" horiz-adv-x="686" 
d="M459 0v434h-264v-313q0 -29 12.5 -42t43.5 -13h67v-66h-90q-63 0 -89.5 29t-26.5 83v322h-91v66h91v114h83v-114h264v78q0 54 26.5 83t89.5 29h90v-66h-67q-31 0 -43.5 -13t-12.5 -42v-69h127v-66h-127v-434h-83z" />
    <glyph glyph-name="w_w_w" unicode="www" horiz-adv-x="2402" 
d="M341 500h164l99 -496l123 496h86l-124 -500h-167l-99 496l-99 -496h-167l-124 500h86l123 -496zM1119 500h164l99 -496l123 496h86l-124 -500h-167l-99 496l-99 -496h-167l-124 500h86l123 -496zM1897 500h164l99 -496l123 496h86l-124 -500h-167l-99 496l-99 -496h-167
l-124 500h86l123 -496z" />
    <glyph glyph-name=".notdef" horiz-adv-x="570" 
d="M87 0v690h396v-690h-396zM99 22l178 323l-178 323v-646zM109 678l176 -319l176 319h-352zM471 668l-178 -323l178 -323v646zM461 12l-176 319l-176 -319h352z" />
    <glyph glyph-name=".null" horiz-adv-x="0" 
 />
    <glyph glyph-name="nonmarkingreturn" horiz-adv-x="333" 
 />
    <glyph glyph-name="space" unicode=" " horiz-adv-x="246" 
 />
    <glyph glyph-name="exclam" unicode="!" horiz-adv-x="255" 
d="M152 221h-49l-29 469h107zM79 0v97h97v-97h-97z" />
    <glyph glyph-name="quotedbl" unicode="&#x22;" horiz-adv-x="352" 
d="M76 444l-17 246h88l-17 -246h-54zM222 444l-17 246h88l-17 -246h-54z" />
    <glyph glyph-name="numbersign" unicode="#" horiz-adv-x="724" 
d="M366 0l39 193h-165l-39 -193h-75l39 193h-135l19 63h129l36 181h-129l19 63h123l38 190h75l-38 -190h165l38 190h75l-38 -190h151l-19 -63h-145l-36 -181h145l-19 -63h-139l-39 -193h-75zM253 256h165l36 181h-165z" />
    <glyph glyph-name="dollar" unicode="$" horiz-adv-x="613" 
d="M579 179q0 -37 -17 -70.5t-48.5 -59t-77 -41.5t-102.5 -18v-109h-68v112q-55 8 -97.5 31.5t-71.5 57t-45 75.5t-19 86h89q2 -37 17.5 -70t40.5 -57.5t59 -39t73 -14.5q76 0 124.5 32t48.5 86q0 48 -32 77t-98 45l-93 22q-107 25 -159.5 72t-52.5 119q0 40 17 72.5
t46.5 56t69 38t83.5 17.5v106h68v-107q107 -11 162.5 -71.5t63.5 -141.5h-89q-6 61 -51.5 102t-124.5 41q-67 0 -109.5 -28.5t-42.5 -80.5q0 -39 30.5 -63.5t115.5 -44.5l93 -22q96 -22 146.5 -71t50.5 -139z" />
    <glyph glyph-name="percent" unicode="%" horiz-adv-x="870" 
d="M190 310q-38 0 -67.5 15.5t-49.5 42t-30.5 62t-10.5 75.5t10.5 76t30.5 62t49.5 41.5t67.5 15.5t68 -15.5t50 -41.5t30.5 -62t10.5 -76t-10.5 -75.5t-30.5 -62t-50 -42t-68 -15.5zM295 0h-72l351 690h72zM190 359q43 0 65.5 40.5t22.5 105.5t-22.5 105.5t-65.5 40.5
t-65 -40.5t-22 -105.5t22 -105.5t65 -40.5zM679 -10q-38 0 -67.5 15.5t-49.5 42t-30.5 62t-10.5 75.5t10.5 76t30.5 62t49.5 41.5t67.5 15.5t68 -15.5t50 -41.5t30.5 -62t10.5 -76t-10.5 -75.5t-30.5 -62t-50 -42t-68 -15.5zM679 39q43 0 65.5 40.5t22.5 105.5t-22.5 105.5
t-65.5 40.5t-65 -40.5t-22 -105.5t22 -105.5t65 -40.5z" />
    <glyph glyph-name="ampersand" unicode="&#x26;" horiz-adv-x="673" 
d="M558 0l-57 66q-34 -34 -83 -55t-115 -21q-53 0 -100.5 13.5t-82.5 41t-55.5 68t-20.5 94.5q0 39 14 70t36 55.5t51 44t59 34.5q-33 39 -52 72.5t-19 73.5q0 57 49 100t124 43t123.5 -41t48.5 -111q0 -29 -14 -52t-35 -41t-46.5 -32.5t-48.5 -26.5l163 -190q10 31 14.5 64
t3.5 66h83q0 -48 -10.5 -99t-33.5 -97l121 -140h-117zM223 556q0 -24 20 -51.5t42 -52.5q46 23 74.5 42t28.5 54t-20 60.5t-62 25.5t-62.5 -25t-20.5 -53zM134 203q0 -35 14.5 -62.5t37.5 -46t53 -28.5t61 -10q52 0 90 18t63 48l-200 231q-62 -34 -90.5 -66.5t-28.5 -83.5z
" />
    <glyph glyph-name="quotesingle" unicode="'" horiz-adv-x="206" 
d="M76 444l-17 246h88l-17 -246h-54z" />
    <glyph glyph-name="parenleft" unicode="(" horiz-adv-x="290" 
d="M50 260q0 81 13.5 148.5t34 120.5t45 93t46.5 68h70q-16 -28 -37 -72t-40 -99.5t-32 -121.5t-13 -137t13 -137t32 -121.5t40 -99.5t37 -72h-70q-22 28 -46.5 68t-45 93t-34 120.5t-13.5 148.5z" />
    <glyph glyph-name="parenright" unicode=")" horiz-adv-x="290" 
d="M101 690q22 -28 46.5 -68t45 -93t34 -120.5t13.5 -148.5t-13.5 -148.5t-34 -120.5t-45 -93t-46.5 -68h-70q16 28 37 72t40 99.5t32 121.5t13 137t-13 137t-32 121.5t-40 99.5t-37 72h70z" />
    <glyph glyph-name="asterisk" unicode="*" horiz-adv-x="420" 
d="M165 508l-124 40l18 53l123 -40v129h56v-129l123 40l18 -53l-124 -40l76 -105l-45 -33l-76 105l-76 -105l-45 33z" />
    <glyph glyph-name="plus" unicode="+" 
d="M510 237h-197v-197h-66v197h-197v66h197v197h66v-197h197v-66z" />
    <glyph glyph-name="comma" unicode="," horiz-adv-x="234" 
d="M34 -115l73 115h-38v97h97v-97l-73 -115h-59z" />
    <glyph glyph-name="hyphen" unicode="-" horiz-adv-x="413" 
d="M345 227h-277v66h277v-66z" />
    <glyph glyph-name="period" unicode="." horiz-adv-x="233" 
d="M68 0v97h97v-97h-97z" />
    <glyph glyph-name="slash" unicode="/" horiz-adv-x="435" 
d="M114 0h-87l295 690h87z" />
    <glyph glyph-name="zero" unicode="0" horiz-adv-x="639" 
d="M319 -10q-62 0 -111.5 26t-83.5 72.5t-52 112t-18 144.5t18 144.5t52 112t83.5 72.5t111.5 26t112 -26t84 -72.5t52 -112t18 -144.5t-18 -144.5t-52 -112t-84 -72.5t-112 -26zM319 56q84 0 130 78.5t46 210.5t-46 210.5t-130 78.5t-129.5 -78t-45.5 -211t45.5 -211
t129.5 -78z" />
    <glyph glyph-name="one" unicode="1" horiz-adv-x="461" 
d="M444 66v-66h-392v66h165v452h-165v66h50q77 0 101.5 27.5t29.5 70.5l1 8h66v-624h144z" />
    <glyph glyph-name="two" unicode="2" 
d="M511 0h-464v56l273 277q26 27 45 47.5t30.5 38t16.5 35t5 39.5q0 25 -8 50.5t-25.5 45.5t-44.5 32.5t-64 12.5q-66 0 -103 -43.5t-37 -120.5h-83q0 56 18.5 99t49 72t71 44t84.5 15q54 0 97 -16.5t72 -44t44.5 -63t15.5 -73.5q0 -32 -9.5 -60t-28.5 -56t-48 -59.5
t-68 -71.5l-187 -190h348v-66z" />
    <glyph glyph-name="three" unicode="3" horiz-adv-x="563" 
d="M281 -10q-45 0 -85 14t-71 41.5t-51 68.5t-26 94h83q4 -30 13 -58t27 -48.5t47 -33t71 -12.5q57 0 93 33.5t36 89.5q0 81 -53 111.5t-159 33.5v66q102 3 150.5 30.5t48.5 101.5q0 48 -32 80t-94 32q-66 0 -100 -36t-40 -98h-83q5 50 24.5 87.5t48.5 62.5t66.5 37.5
t77.5 12.5q98 0 160 -48.5t62 -136.5q0 -65 -47.5 -105.5t-113.5 -51.5v-2q35 -6 67 -18.5t55.5 -32.5t37.5 -49t14 -69q0 -47 -17.5 -83.5t-48 -61.5t-72.5 -38.5t-89 -13.5z" />
    <glyph glyph-name="four" unicode="4" horiz-adv-x="597" 
d="M562 202h-100v-202h-83v202h-355v56l267 432h171v-422h100v-66zM120 268h259v418z" />
    <glyph glyph-name="five" unicode="5" horiz-adv-x="586" 
d="M451 231q0 47 -14.5 80.5t-37.5 54.5t-52 30.5t-58 9.5q-46 0 -81 -19.5t-54 -65.5h-83v369h430v-66h-347v-249h2q22 46 63 72t98 26q43 0 83.5 -15.5t71.5 -46t50 -76t19 -104.5q0 -114 -68.5 -177.5t-177.5 -63.5q-99 0 -163.5 60t-74.5 161h83q3 -28 13.5 -56
t29.5 -50t47.5 -35.5t68.5 -13.5q63 0 107.5 44.5t44.5 130.5z" />
    <glyph glyph-name="six" unicode="6" horiz-adv-x="614" 
d="M562 226q0 -57 -21.5 -101t-56.5 -74t-79.5 -45.5t-90.5 -15.5q-66 0 -115 26t-80.5 71.5t-47.5 107.5t-16 134q0 82 17 150.5t50 117t82 76t112 27.5q104 0 160.5 -56.5t66.5 -143.5h-83q-7 63 -42.5 98.5t-101.5 35.5q-84 0 -126.5 -76t-42.5 -220h2q22 54 68 87.5
t112 33.5q45 0 87.5 -15t74.5 -44.5t51.5 -73t19.5 -100.5zM151 230q0 -74 45.5 -124t112.5 -50q72 0 117.5 49t45.5 121t-45 119t-117 47t-115.5 -46.5t-43.5 -115.5z" />
    <glyph glyph-name="seven" unicode="7" horiz-adv-x="487" 
d="M170 0h-84l292 624h-355v66h444v-56z" />
    <glyph glyph-name="eight" unicode="8" horiz-adv-x="614" 
d="M307 -10q-49 0 -95.5 13.5t-82 38.5t-57 62.5t-21.5 85.5q0 39 15.5 69.5t38.5 52.5t50 35.5t51 19.5v2q-21 7 -44 19.5t-42 30.5t-31 43.5t-12 59.5q0 38 17.5 71t48 56.5t73 37t91.5 13.5t91.5 -13.5t73 -37t48 -56.5t17.5 -71q0 -34 -12 -59.5t-31 -43.5t-42 -30.5
t-44 -19.5v-2q24 -6 51 -19.5t50 -35.5t38.5 -52.5t15.5 -69.5q0 -48 -21.5 -85.5t-57 -62.5t-82 -38.5t-95.5 -13.5zM307 403q61 0 100.5 35.5t39.5 81.5t-37 80t-103 34t-103 -34t-37 -80t39.5 -81.5t100.5 -35.5zM307 56q71 0 118.5 40.5t47.5 100.5t-47.5 98t-118.5 38
t-118.5 -38t-47.5 -98t47.5 -100.5t118.5 -40.5z" />
    <glyph glyph-name="nine" unicode="9" horiz-adv-x="614" 
d="M52 464q0 57 21.5 101t56.5 74t79.5 45.5t90.5 15.5q66 0 115 -26t80.5 -71.5t47.5 -107.5t16 -134q0 -82 -17 -150.5t-50 -117t-82 -76t-112 -27.5q-104 0 -160.5 56.5t-66.5 143.5h83q7 -63 42.5 -98.5t101.5 -35.5q84 0 126.5 76t42.5 220h-2q-22 -54 -68 -87.5
t-112 -33.5q-45 0 -87.5 15t-74.5 44.5t-51.5 73t-19.5 100.5zM463 460q0 74 -45.5 124t-112.5 50q-72 0 -117.5 -49t-45.5 -121t45 -119t117 -47t115.5 46.5t43.5 115.5z" />
    <glyph glyph-name="colon" unicode=":" horiz-adv-x="233" 
d="M68 403v97h97v-97h-97zM68 0v97h97v-97h-97z" />
    <glyph glyph-name="semicolon" unicode=";" horiz-adv-x="267" 
d="M91 403v97h97v-97h-97zM56 -115l73 115h-38v97h97v-97l-73 -115h-59z" />
    <glyph glyph-name="less" unicode="&#x3c;" 
d="M481 56l-427 176v76l427 176v-73l-342 -141l342 -141v-73z" />
    <glyph glyph-name="equal" unicode="=" 
d="M510 320h-460v66h460v-66zM510 154h-460v66h460v-66z" />
    <glyph glyph-name="greater" unicode="&#x3e;" 
d="M506 232l-427 -176v73l342 141l-342 141v73l427 -176v-76z" />
    <glyph glyph-name="question" unicode="?" horiz-adv-x="515" 
d="M196 200q0 38 6 65.5t18 49t31 40t44 37.5l45 34q24 18 38.5 39.5t14.5 47.5q0 49 -33.5 85t-103.5 36q-39 0 -66 -13.5t-43.5 -35t-24 -49.5t-7.5 -57h-83q0 57 18.5 99t49.5 69t71.5 40t84.5 13q49 0 90.5 -12.5t71.5 -35t47 -56t17 -75.5q0 -54 -24.5 -86t-60.5 -60
l-45 -34q-43 -32 -58 -62t-15 -79h-83zM189 0v97h97v-97h-97z" />
    <glyph glyph-name="at" unicode="@" horiz-adv-x="897" 
d="M690 55q10 0 25.5 3.5t29.5 18.5t24.5 46t10.5 87q0 69 -26.5 130.5t-72 106.5t-106.5 71.5t-129 26.5t-129.5 -26.5t-107 -71.5t-72 -106.5t-26.5 -130.5t26.5 -130.5t72 -106.5t107 -71.5t129.5 -26.5q43 0 83.5 12.5t75.5 31.5l34 -59q-43 -24 -92 -37t-101 -13
q-82 0 -155 31.5t-127.5 86t-86 127.5t-31.5 155t31.5 155t86 127.5t127.5 86t155 31.5t155 -31.5t127 -86t85.5 -127.5t31.5 -155q0 -65 -15 -107.5t-37.5 -67.5t-50 -35t-52.5 -10q-54 0 -90.5 27.5t-46.5 67.5h-2q-17 -46 -55 -70.5t-89 -24.5q-63 0 -108 36.5t-45 99.5
q0 34 14 57.5t37.5 38t55 22.5t66.5 12l123 13v14q0 50 -27 78.5t-78 28.5q-50 0 -75.5 -25.5t-27.5 -64.5h-73q4 60 48 104t128 44q37 0 69.5 -9.5t56.5 -31t38 -56t14 -84.5v-144q0 -37 23 -52.5t44 -15.5zM425 48q58 0 91.5 35.5t33.5 106.5v24l-117 -14
q-49 -5 -74.5 -23.5t-25.5 -53.5q0 -33 26.5 -54t65.5 -21z" />
    <glyph glyph-name="A" unicode="A" horiz-adv-x="664" 
d="M10 0l233 690h178l233 -690h-91l-70 208h-322l-70 -208h-91zM332 686l-137 -406h274z" />
    <glyph glyph-name="B" unicode="B" horiz-adv-x="624" 
d="M542 507q0 -60 -36 -97.5t-88 -49.5v-2q84 -7 120.5 -51.5t36.5 -109.5q0 -94 -61 -145.5t-186 -51.5h-235v690h198q125 0 188 -45t63 -138zM301 618h-122v-225h108q80 0 121 28.5t41 85.5t-34 84t-114 27zM320 321h-141v-249h159q80 0 112 33.5t32 91.5t-41 91t-121 33z
" />
    <glyph glyph-name="C" unicode="C" horiz-adv-x="711" 
d="M51 345q0 74 23 139t64 112.5t99.5 75.5t127.5 28q118 0 198.5 -70.5t101.5 -185.5h-89q-17 87 -71.5 135.5t-135.5 48.5q-50 0 -92 -21t-71.5 -58.5t-45.5 -89.5t-16 -114q0 -128 64.5 -205.5t168.5 -77.5q78 0 133 47.5t72 134.5h89q-21 -115 -102.5 -184.5
t-199.5 -69.5q-69 0 -128 26t-101 73t-65.5 112.5t-23.5 143.5z" />
    <glyph glyph-name="D" unicode="D" horiz-adv-x="695" 
d="M93 0v690h199q82 0 147.5 -25.5t111 -71t69.5 -109t24 -139.5t-24 -139.5t-69.5 -109t-111 -71t-147.5 -25.5h-199zM282 618h-103v-546h103q127 0 198 70.5t71 202.5t-71 202.5t-198 70.5z" />
    <glyph glyph-name="E" unicode="E" horiz-adv-x="556" 
d="M93 0v690h397v-72h-311v-228h302v-72h-302v-246h319v-72h-405z" />
    <glyph glyph-name="F" unicode="F" horiz-adv-x="573" 
d="M93 0v690h434v-72h-348v-234h342v-72h-342v-312h-86z" />
    <glyph glyph-name="G" unicode="G" horiz-adv-x="729" 
d="M579 254v29h-234v72h322v-355h-82v147h-2q-10 -29 -29 -57.5t-45.5 -50.5t-62.5 -35.5t-81 -13.5q-71 0 -129.5 28t-99 75.5t-63 112.5t-22.5 139t21.5 139t62.5 112.5t100 75.5t134 28q65 0 116 -19.5t87.5 -52t58.5 -74.5t29 -86h-89q-5 31 -19.5 60t-38 51t-58 35.5
t-80.5 13.5q-56 0 -99.5 -21t-72.5 -58.5t-44 -89.5t-15 -114t15.5 -114t45 -89.5t73.5 -58.5t100 -21q49 0 87 15.5t63 41.5t38 61t13 74z" />
    <glyph glyph-name="H" unicode="H" horiz-adv-x="686" 
d="M507 690h86v-690h-86v316h-328v-316h-86v690h86v-302h328v302z" />
    <glyph glyph-name="I" unicode="I" horiz-adv-x="272" 
d="M179 0h-86v690h86v-690z" />
    <glyph glyph-name="J" unicode="J" horiz-adv-x="371" 
d="M197 166v524h86v-535q0 -87 -38.5 -121t-122.5 -34h-108v72h96q51 0 69 22.5t18 71.5z" />
    <glyph glyph-name="K" unicode="K" horiz-adv-x="625" 
d="M515 0l-336 354v-354h-86v690h86v-324l302 324h114l-308 -330l342 -360h-114z" />
    <glyph glyph-name="L" unicode="L" horiz-adv-x="507" 
d="M494 72v-72h-401v690h86v-618h315z" />
    <glyph glyph-name="M" unicode="M" horiz-adv-x="890" 
d="M445 4l179 686h173v-690h-86v686l-177 -686h-178l-177 686v-686h-86v690h173z" />
    <glyph glyph-name="N" unicode="N" horiz-adv-x="726" 
d="M633 690v-690h-177l-277 686v-686h-86v690h177l277 -686v686h86z" />
    <glyph glyph-name="O" unicode="O" horiz-adv-x="744" 
d="M372 -10q-71 0 -130.5 28t-102 75.5t-66 112.5t-23.5 139t23.5 139t66 112.5t102 75.5t130.5 28t130.5 -28t102 -75.5t66 -112.5t23.5 -139t-23.5 -139t-66 -112.5t-102 -75.5t-130.5 -28zM372 62q51 0 93.5 21t72.5 58.5t46.5 89.5t16.5 114t-16.5 114t-46.5 89.5
t-72.5 58.5t-93.5 21t-93.5 -21t-72.5 -58.5t-46.5 -89.5t-16.5 -114t16.5 -114t46.5 -89.5t72.5 -58.5t93.5 -21z" />
    <glyph glyph-name="P" unicode="P" horiz-adv-x="621" 
d="M93 0v690h226q125 0 198.5 -53t73.5 -153t-73.5 -153.5t-198.5 -53.5h-140v-277h-86zM329 618h-150v-269h150q80 0 124.5 34.5t44.5 100.5t-44.5 100t-124.5 34z" />
    <glyph glyph-name="Q" unicode="Q" horiz-adv-x="744" 
d="M618 0l-62 49q-38 -28 -84.5 -43.5t-99.5 -15.5q-71 0 -130.5 28t-102 75.5t-66 112.5t-23.5 139t23.5 139t66 112.5t102 75.5t130.5 28t130.5 -28t102 -75.5t66 -112.5t23.5 -139q0 -69 -21 -131t-59 -109l135 -105h-131zM143 345q0 -62 16.5 -114t46.5 -89.5
t72.5 -58.5t93.5 -21q34 0 64.5 9.5t55.5 26.5l-177 138h131l103 -80q25 37 38.5 85t13.5 104q0 62 -16.5 114t-46.5 89.5t-72.5 58.5t-93.5 21t-93.5 -21t-72.5 -58.5t-46.5 -89.5t-16.5 -114z" />
    <glyph glyph-name="R" unicode="R" horiz-adv-x="630" 
d="M93 0v690h214q125 0 195 -51.5t70 -147.5q0 -73 -41.5 -121t-117.5 -67l172 -303h-99l-165 291h-7h-7h-128v-291h-86zM317 618h-138v-255h138q80 0 121 33t41 95t-41 94.5t-121 32.5z" />
    <glyph glyph-name="S" unicode="S" horiz-adv-x="635" 
d="M393 389q96 -22 146.5 -71t50.5 -139q0 -39 -18 -73.5t-52 -60t-83 -40.5t-110 -15q-68 0 -119.5 21t-86.5 56t-54.5 81t-22.5 95h89q2 -37 17.5 -70t40.5 -57.5t59 -39t73 -14.5q76 0 124.5 32t48.5 86q0 48 -32 77t-98 45l-93 22q-107 25 -159.5 72t-52.5 119
q0 42 19.5 76.5t52.5 58.5t76.5 37t92.5 13q64 0 112.5 -17t81.5 -46t52 -68.5t23 -83.5h-89q-6 61 -51.5 102t-124.5 41q-67 0 -109.5 -28.5t-42.5 -80.5q0 -39 30.5 -63.5t115.5 -44.5z" />
    <glyph glyph-name="T" unicode="T" horiz-adv-x="574" 
d="M12 618v72h550v-72h-232v-618h-86v618h-232z" />
    <glyph glyph-name="U" unicode="U" horiz-adv-x="682" 
d="M510 260v430h86v-415q0 -146 -68 -215.5t-187 -69.5t-187 69.5t-68 215.5v415h86v-430q0 -90 39.5 -144t129.5 -54t129.5 54t39.5 144z" />
    <glyph glyph-name="V" unicode="V" horiz-adv-x="664" 
d="M10 690h91l231 -686l231 686h91l-233 -690h-178z" />
    <glyph glyph-name="W" unicode="W" horiz-adv-x="986" 
d="M409 690h168l131 -686l162 686h85l-163 -690h-168l-131 686l-131 -686h-168l-163 690h85l162 -686z" />
    <glyph glyph-name="X" unicode="X" horiz-adv-x="631" 
d="M530 0l-214 305l-215 -305h-100l260 370l-225 320h100l180 -255l179 255h100l-225 -320l260 -370h-100z" />
    <glyph glyph-name="Y" unicode="Y" horiz-adv-x="618" 
d="M352 306v-306h-86v306l-257 384h97l203 -303l203 303h97z" />
    <glyph glyph-name="Z" unicode="Z" horiz-adv-x="567" 
d="M39 72l375 546h-366v72h471v-72l-375 -546h384v-72h-489v72z" />
    <glyph glyph-name="bracketleft" unicode="[" horiz-adv-x="303" 
d="M88 -170v860h182v-66h-99v-728h99v-66h-182z" />
    <glyph glyph-name="backslash" unicode="\" horiz-adv-x="435" 
d="M408 0h-87l-295 690h87z" />
    <glyph glyph-name="bracketright" unicode="]" horiz-adv-x="303" 
d="M215 690v-860h-182v66h99v728h-99v66h182z" />
    <glyph glyph-name="asciicircum" unicode="^" horiz-adv-x="518" 
d="M50 326l164 364h90l164 -364h-83l-126 296l-126 -296h-83z" />
    <glyph glyph-name="underscore" unicode="_" horiz-adv-x="461" 
d="M437 -66h-413v66h413v-66z" />
    <glyph glyph-name="grave" unicode="`" horiz-adv-x="271" 
d="M251 555h-78l-148 135h121z" />
    <glyph glyph-name="a" unicode="a" horiz-adv-x="531" 
d="M377 323q0 56 -30.5 88.5t-88.5 32.5q-57 0 -86 -29t-31 -73h-83q2 34 16 65t39 53.5t61.5 36t83.5 13.5q41 0 78 -11t64.5 -35.5t43.5 -64t16 -95.5v-304h-80v98h-2q-19 -51 -62 -79.5t-101 -28.5q-36 0 -67.5 10.5t-55.5 30.5t-37.5 49t-13.5 65q0 38 16 64.5
t42.5 43.5t62 26t75.5 13l140 15v16zM235 56q66 0 104 40t38 121v27l-133 -15q-56 -6 -84.5 -27t-28.5 -61q0 -37 30 -61t74 -24z" />
    <glyph glyph-name="b" unicode="b" horiz-adv-x="590" 
d="M543 250q0 -51 -13.5 -98.5t-40.5 -83t-67.5 -57t-93.5 -21.5q-59 0 -102.5 31t-64.5 85h-2v-106h-83v690h83v-296h2q21 54 64.5 85t102.5 31q53 0 93.5 -21.5t67.5 -57t40.5 -83t13.5 -98.5zM453 250q0 83 -39 138.5t-111 55.5t-110 -55.5t-38 -138.5t38 -138.5
t110 -55.5t111 55.5t39 138.5z" />
    <glyph glyph-name="c" unicode="c" horiz-adv-x="537" 
d="M46 250q0 50 16.5 97t46.5 83t72.5 58t95.5 22q90 0 146.5 -45.5t72.5 -131.5h-83q-11 60 -46.5 85.5t-84.5 25.5q-35 0 -62.5 -15.5t-46 -42t-28 -61.5t-9.5 -75q0 -41 10 -76.5t29 -61.5t47.5 -41t65.5 -15q48 0 83.5 26.5t46.5 86.5h83q-16 -86 -73 -132.5t-147 -46.5
q-54 0 -97.5 21t-74 56.5t-47 83t-16.5 99.5z" />
    <glyph glyph-name="d" unicode="d" horiz-adv-x="590" 
d="M47 250q0 51 13.5 98.5t40.5 83t67.5 57t93.5 21.5q59 0 102.5 -31t64.5 -85h2v296h83v-690h-83v106h-2q-21 -54 -64.5 -85t-102.5 -31q-53 0 -93.5 21.5t-67.5 57t-40.5 83t-13.5 98.5zM137 250q0 -83 39 -138.5t111 -55.5t110 55.5t38 138.5t-38 138.5t-110 55.5
t-111 -55.5t-39 -138.5z" />
    <glyph glyph-name="e" unicode="e" horiz-adv-x="545" 
d="M493 158q-7 -33 -22 -63.5t-41 -53.5t-63.5 -37t-88.5 -14q-56 0 -99 21t-72.5 56.5t-45 83t-15.5 99.5t14.5 99.5t43.5 83t71.5 56.5t98.5 21t100 -21t73.5 -58.5t43 -90t8.5 -115.5h-369q3 -78 45 -123.5t111 -45.5q32 0 54.5 10t36 25.5t21.5 33.5t12 33h83zM274 444
q-66 0 -102 -43t-42 -110h287q-5 67 -41 110t-102 43z" />
    <glyph glyph-name="f" unicode="f" horiz-adv-x="340" 
d="M113 500v78q0 54 26.5 83t89.5 29h90v-66h-67q-31 0 -43.5 -13t-12.5 -42v-69h127v-66h-127v-434h-83v434h-91v66h91z" />
    <glyph glyph-name="g" unicode="g" horiz-adv-x="591" 
d="M432 17v109h-2q-21 -54 -64.5 -85t-102.5 -31q-53 0 -93.5 19.5t-67.5 53.5t-40.5 80t-13.5 97t13.5 97t40.5 80t67.5 53.5t93.5 19.5q59 0 102.5 -31t64.5 -85h2v106h83v-483q0 -84 -56 -140.5t-164 -56.5q-99 0 -153 45t-64 121h83q8 -53 46.5 -76.5t87.5 -23.5
q58 0 97.5 32.5t39.5 98.5zM138 260q0 -83 39 -133.5t111 -50.5t110 50.5t38 133.5t-38 133.5t-110 50.5t-111 -50.5t-39 -133.5z" />
    <glyph glyph-name="h" unicode="h" horiz-adv-x="544" 
d="M390 310q0 62 -27.5 96.5t-87.5 34.5q-61 0 -88.5 -35t-27.5 -88v-318h-83v690h80v-288h2q19 51 57.5 79.5t93.5 28.5q40 0 71 -13.5t51.5 -36.5t31 -54.5t10.5 -66.5v-339h-83v310z" />
    <glyph glyph-name="i" unicode="i" horiz-adv-x="235" 
d="M159 500v-500h-83v500h83zM69 593v97h97v-97h-97z" />
    <glyph glyph-name="j" unicode="j" horiz-adv-x="235" 
d="M159 500v-558q0 -54 -26.5 -83t-89.5 -29h-58v66h35q31 0 43.5 13t12.5 42v549h83zM69 593v97h97v-97h-97z" />
    <glyph glyph-name="k" unicode="k" horiz-adv-x="513" 
d="M397 0l-238 277v-277h-83v690h83v-407l228 217h106l-231 -220l240 -280h-105z" />
    <glyph glyph-name="l" unicode="l" horiz-adv-x="235" 
d="M76 0v690h83v-690h-83z" />
    <glyph glyph-name="m" unicode="m" horiz-adv-x="848" 
d="M159 318v-318h-83v500h80v-98h2q19 51 54.5 79.5t88.5 28.5q63 0 102.5 -30.5t55.5 -77.5h1q19 51 58 79.5t92 28.5q41 0 72.5 -13.5t52.5 -36.5t31.5 -54.5t10.5 -66.5v-339h-83v310q0 62 -27 96.5t-86 34.5q-63 0 -88 -35t-25 -88v-318h-83v310q0 62 -27 96.5t-86 34.5
q-63 0 -88 -35t-25 -88z" />
    <glyph glyph-name="n" unicode="n" horiz-adv-x="544" 
d="M390 310q0 62 -27.5 96.5t-87.5 34.5q-61 0 -88.5 -35t-27.5 -88v-318h-83v500h80v-98h2q19 51 57.5 79.5t93.5 28.5q40 0 71 -13.5t51.5 -36.5t31 -54.5t10.5 -66.5v-339h-83v310z" />
    <glyph glyph-name="o" unicode="o" horiz-adv-x="570" 
d="M285 -10q-56 0 -100.5 22t-75.5 58t-47.5 83t-16.5 97t16.5 97t47.5 83t75.5 58t100.5 22t100.5 -22t75.5 -58t47.5 -83t16.5 -97t-16.5 -97t-47.5 -83t-75.5 -58t-100.5 -22zM285 56q72 0 111 55.5t39 138.5t-39 138.5t-111 55.5t-111 -55.5t-39 -138.5t39 -138.5
t111 -55.5z" />
    <glyph glyph-name="p" unicode="p" horiz-adv-x="590" 
d="M543 250q0 -51 -13.5 -98.5t-40.5 -83t-67.5 -57t-93.5 -21.5q-59 0 -102.5 31t-64.5 85h-2v-276h-83v670h83v-106h2q21 54 64.5 85t102.5 31q53 0 93.5 -21.5t67.5 -57t40.5 -83t13.5 -98.5zM453 250q0 83 -39 138.5t-111 55.5t-110 -55.5t-38 -138.5t38 -138.5
t110 -55.5t111 55.5t39 138.5z" />
    <glyph glyph-name="q" unicode="q" horiz-adv-x="590" 
d="M47 250q0 51 13.5 98.5t40.5 83t67.5 57t93.5 21.5q59 0 102.5 -31t64.5 -85h2v106h83v-670h-83v276h-2q-21 -54 -64.5 -85t-102.5 -31q-53 0 -93.5 21.5t-67.5 57t-40.5 83t-13.5 98.5zM137 250q0 -83 39 -138.5t111 -55.5t110 55.5t38 138.5t-38 138.5t-110 55.5
t-111 -55.5t-39 -138.5z" />
    <glyph glyph-name="r" unicode="r" horiz-adv-x="331" 
d="M159 300v-300h-83v500h80v-98h2q19 51 57.5 79.5t93.5 28.5v-90h-18q-60 0 -96 -26.5t-36 -93.5z" />
    <glyph glyph-name="s" unicode="s" horiz-adv-x="494" 
d="M371 131q0 25 -19.5 45t-76.5 33l-67 15q-72 16 -113 50t-41 93q0 62 53 102.5t133 40.5q85 0 140.5 -44.5t60.5 -113.5h-83q-5 43 -35.5 67.5t-82.5 24.5q-43 0 -74 -17.5t-31 -51.5q0 -31 24.5 -45t80.5 -27l67 -15q72 -16 108 -54t36 -98q0 -64 -51.5 -105t-148.5 -41
q-49 0 -87.5 16t-65 41.5t-42 59t-17.5 68.5h83q4 -51 40 -85t92 -34q48 0 82.5 20t34.5 55z" />
    <glyph glyph-name="t" unicode="t" horiz-adv-x="346" 
d="M112 434h-91v66h91v114h83v-114h127v-66h-127v-313q0 -29 12.5 -42t43.5 -13h67v-66h-90q-63 0 -89.5 29t-26.5 83v322z" />
    <glyph glyph-name="u" unicode="u" horiz-adv-x="540" 
d="M155 190q0 -62 27 -96.5t86 -34.5q63 0 88 35t25 88v318h83v-500h-80v98h-2q-19 -51 -54.5 -79.5t-88.5 -28.5q-41 0 -72.5 13.5t-52.5 36.5t-31.5 54.5t-10.5 66.5v339h83v-310z" />
    <glyph glyph-name="v" unicode="v" horiz-adv-x="510" 
d="M23 500h86l146 -496l146 496h86l-147 -500h-170z" />
    <glyph glyph-name="w" unicode="w" horiz-adv-x="846" 
d="M341 500h164l99 -496l123 496h86l-124 -500h-167l-99 496l-99 -496h-167l-124 500h86l123 -496z" />
    <glyph glyph-name="x" unicode="x" horiz-adv-x="498" 
d="M397 0l-147 210l-148 -210h-93l190 268l-165 232h93l123 -174l122 174h93l-165 -232l190 -268h-93z" />
    <glyph glyph-name="y" unicode="y" horiz-adv-x="526" 
d="M512 500l-240 -670h-86l79 220h-82l-164 450h86l162 -444l159 444h86z" />
    <glyph glyph-name="z" unicode="z" horiz-adv-x="464" 
d="M41 66l272 368h-265v66h367v-66l-272 -368h281v-66h-383v66z" />
    <glyph glyph-name="braceleft" unicode="{" horiz-adv-x="304" 
d="M36 213v94q56 3 71 51.5t15 124.5q0 87 24 131t55 76h70q-13 -18 -24 -36.5t-19.5 -42t-13.5 -54.5t-5 -74q0 -86 -34.5 -146t-73.5 -76v-2q39 -16 73.5 -76t34.5 -146q0 -43 5 -74t13.5 -54.5t19.5 -42t24 -36.5h-70q-31 32 -55 76t-24 131q0 76 -15 124.5t-71 51.5z
" />
    <glyph glyph-name="bar" unicode="|" horiz-adv-x="247" 
d="M87 -120v810h73v-810h-73z" />
    <glyph glyph-name="braceright" unicode="}" horiz-adv-x="304" 
d="M268 307v-94q-56 -3 -71 -51.5t-15 -124.5q0 -87 -24 -131t-55 -76h-70q13 18 24 36.5t19.5 42t13.5 54.5t5 74q0 86 34.5 146t73.5 76v2q-39 16 -73.5 76t-34.5 146q0 43 -5 74t-13.5 54.5t-19.5 42t-24 36.5h70q31 -32 55 -76t24 -131q0 -76 15 -124.5t71 -51.5z" />
    <glyph glyph-name="asciitilde" unicode="~" horiz-adv-x="524" 
d="M176 371q29 0 50.5 -8t40.5 -17.5t38 -17.5t44 -8q30 0 61.5 11.5t63.5 39.5v-83q-31 -26 -60 -39t-66 -13q-29 0 -50.5 8t-40.5 17.5t-38 17.5t-44 8q-30 0 -61.5 -11.5t-63.5 -39.5v83q31 26 60 39t66 13z" />
    <glyph glyph-name="uni00A0" unicode="&#xa0;" horiz-adv-x="246" 
 />
    <glyph glyph-name="exclamdown" unicode="&#xa1;" horiz-adv-x="239" 
d="M71 403v97h97v-97h-97zM95 279h49l29 -469h-107z" />
    <glyph glyph-name="cent" unicode="&#xa2;" horiz-adv-x="535" 
d="M500 169q-15 -80 -65 -125.5t-129 -52.5v-111h-63v113q-46 7 -82.5 30.5t-62 57.5t-39.5 78t-14 91q0 46 14 89.5t39.5 78.5t62 59t82.5 31v108h63v-107q78 -7 126 -52.5t63 -123.5h-83q-11 60 -46.5 85.5t-84.5 25.5q-35 0 -62.5 -15.5t-46 -42t-28 -61.5t-9.5 -75
q0 -41 10 -76.5t29 -61.5t47.5 -41t65.5 -15q48 0 83.5 26.5t46.5 86.5h83z" />
    <glyph glyph-name="sterling" unicode="&#xa3;" horiz-adv-x="600" 
d="M550 0h-479v72q47 39 80 78.5t33 82.5q0 20 -5.5 38t-13.5 34h-113v72h64q-18 25 -32 53.5t-14 65.5q0 42 16 79t46 65t72.5 44t95.5 16q62 0 109 -18t77.5 -49t47 -72t19.5 -87h-91q-2 31 -11 59t-27.5 49t-47 33.5t-69.5 12.5q-37 0 -64 -11t-44.5 -29.5t-26.5 -42.5
t-9 -49q0 -31 16.5 -60.5t36.5 -58.5h246v-72h-202q7 -16 12 -34.5t5 -37.5q0 -48 -30 -86.5t-73 -74.5h376v-72z" />
    <glyph glyph-name="currency" unicode="&#xa4;" horiz-adv-x="621" 
d="M560 155l-56 -56l-66 66q-27 -19 -59.5 -30t-68.5 -11q-35 0 -67.5 10.5t-60.5 29.5l-65 -65l-56 56l65 65q-19 28 -29.5 60.5t-10.5 67.5q0 36 11 68.5t30 60.5l-66 66l55 55l66 -66q28 19 60.5 29.5t67.5 10.5q36 0 68.5 -11t59.5 -30l67 67l55 -55l-67 -67
q19 -27 29.5 -60t10.5 -68t-10.5 -67.5t-28.5 -59.5zM310 201q61 0 103.5 41t42.5 106t-42.5 106t-103.5 41t-104 -41t-43 -106t43 -106t104 -41z" />
    <glyph glyph-name="yen" unicode="&#xa5;" horiz-adv-x="660" 
d="M583 174h-210v-174h-86v174h-210v66h210v64h-210v66h167l-214 320h97l203 -303l203 303h97l-214 -320h167v-66h-210v-64h210v-66z" />
    <glyph glyph-name="brokenbar" unicode="&#xa6;" horiz-adv-x="255" 
d="M164 394h-73v296h73v-296zM91 -120v296h73v-296h-73z" />
    <glyph glyph-name="section" unicode="&#xa7;" horiz-adv-x="587" 
d="M516 -14q0 -37 -17 -68t-46 -52.5t-68.5 -33.5t-85.5 -12q-45 0 -85 14t-70 41t-50 67.5t-24 92.5h90q5 -69 43.5 -109t100.5 -40q54 0 87.5 25t33.5 66q0 35 -22 56t-70 39l-117 43q-85 31 -126.5 74t-41.5 112q0 35 19.5 66t53.5 50q-22 19 -36 47.5t-14 69.5
q0 37 17 68t46 52.5t68.5 33.5t85.5 12q45 0 85 -14t70 -41t50 -67.5t24 -92.5h-90q-5 69 -43.5 109t-100.5 40q-54 0 -87.5 -25t-33.5 -66q0 -35 22 -56t70 -39l117 -43q85 -31 126.5 -74t41.5 -112q0 -35 -19.5 -66t-53.5 -50q22 -19 36 -47.5t14 -69.5zM380 148
q6 -2 12 -4.5t12 -5.5q18 12 31 32t13 46q0 38 -29 63.5t-95 49.5l-117 43q-6 2 -12 4.5t-12 5.5q-18 -12 -31 -32t-13 -46q0 -38 29 -63.5t95 -49.5z" />
    <glyph glyph-name="dieresis" unicode="&#xa8;" horiz-adv-x="329" 
d="M25 575v97h97v-97h-97zM207 575v97h97v-97h-97z" />
    <glyph glyph-name="copyright" unicode="&#xa9;" horiz-adv-x="806" 
d="M403 -10q-73 0 -138 28t-113 76t-76 113t-28 138t28 138t76 113t113 76t138 28t138 -28t113 -76t76 -113t28 -138t-28 -138t-76 -113t-113 -76t-138 -28zM403 55q60 0 113 23t92 62t62 92t23 113t-23 113t-62 92t-92 62t-113 23t-113 -23t-92 -62t-62 -92t-23 -113
t23 -113t62 -92t92 -62t113 -23zM210 347q0 45 14 85t39.5 69.5t61 46.5t78.5 17q75 0 124.5 -45t60.5 -117h-73q-9 48 -37 76t-74 28q-56 0 -85.5 -44.5t-29.5 -115.5t31 -116.5t89 -45.5q46 0 73 28.5t37 74.5h73q-13 -71 -61.5 -115.5t-124.5 -44.5q-86 0 -141 61.5
t-55 157.5z" />
    <glyph glyph-name="guillemotleft" unicode="&#xab;" horiz-adv-x="532" 
d="M37 263l144 199h101l-150 -199l150 -209h-101zM243 263l144 199h101l-150 -199l150 -209h-101z" />
    <glyph glyph-name="logicalnot" unicode="&#xac;" 
d="M500 127h-66v221h-394v66h460v-287z" />
    <glyph glyph-name="uni00AD" unicode="&#xad;" horiz-adv-x="413" 
d="M345 227h-277v66h277v-66z" />
    <glyph glyph-name="registered" unicode="&#xae;" horiz-adv-x="806" 
d="M403 -10q-73 0 -138 28t-113 76t-76 113t-28 138t28 138t76 113t113 76t138 28t138 -28t113 -76t76 -113t28 -138t-28 -138t-76 -113t-113 -76t-138 -28zM403 55q60 0 113 23t92 62t62 92t23 113t-23 113t-62 92t-92 62t-113 23t-113 -23t-92 -62t-62 -92t-23 -113
t23 -113t62 -92t92 -62t113 -23zM341 306v-172h-73v425h117q77 0 127.5 -32.5t50.5 -93.5q0 -43 -26 -72.5t-70 -43.5l103 -183h-79l-97 172h-4.5h-4.5h-44zM391 364q49 0 71 18.5t22 50.5t-22 50t-71 18h-50v-137h50z" />
    <glyph glyph-name="macron" unicode="&#xaf;" horiz-adv-x="351" 
d="M25 590v66h301v-66h-301z" />
    <glyph glyph-name="degree" unicode="&#xb0;" horiz-adv-x="402" 
d="M201 386q-65 0 -111 46.5t-46 110.5q0 65 46 111t111 46q64 0 110.5 -46t46.5 -111q0 -64 -46.5 -110.5t-110.5 -46.5zM201 452q37 0 64 27t27 64t-27 64t-64 27t-64 -27t-27 -64t27 -64t64 -27z" />
    <glyph glyph-name="plusminus" unicode="&#xb1;" 
d="M510 40h-460v66h197v164h-197v66h197v164h66v-164h197v-66h-197v-164h197v-66z" />
    <glyph glyph-name="acute" unicode="&#xb4;" horiz-adv-x="271" 
d="M98 555h-78l105 135h121z" />
    <glyph glyph-name="paragraph" unicode="&#xb6;" horiz-adv-x="558" 
d="M197 690h264v-690h-79v624h-106v-624h-79v358q-34 0 -64.5 13t-53 35.5t-35.5 53t-13 64.5t13 64.5t35.5 53t53 35.5t64.5 13z" />
    <glyph glyph-name="periodcentered" unicode="&#xb7;" horiz-adv-x="233" 
d="M68 212v97h97v-97h-97z" />
    <glyph glyph-name="cedilla" unicode="&#xb8;" horiz-adv-x="194" 
d="M103 -170h-87v40h74q19 0 27 3.5t8 11.5t-8 11t-27 3h-74l55 111h46l-35 -71h21q31 0 46.5 -16.5t15.5 -37.5q0 -23 -15.5 -39t-46.5 -16z" />
    <glyph glyph-name="guillemotright" unicode="&#xbb;" horiz-adv-x="532" 
d="M351 462l144 -199l-144 -209h-101l150 209l-150 199h101zM145 462l144 -199l-144 -209h-101l150 209l-150 199h101z" />
    <glyph glyph-name="questiondown" unicode="&#xbf;" horiz-adv-x="509" 
d="M323 500v-97h-97v97h97zM316 300q0 -38 -6 -65.5t-18 -49t-31 -40t-44 -37.5l-45 -34q-24 -18 -38.5 -39.5t-14.5 -47.5q0 -49 33.5 -85t103.5 -36q39 0 66 13.5t43.5 35t24 49.5t7.5 57h83q0 -57 -18.5 -99t-49.5 -69t-71.5 -40t-84.5 -13q-49 0 -90.5 12.5t-71.5 35
t-47 56t-17 75.5q0 54 24.5 86t60.5 60l45 34q43 32 58 62t15 79h83z" />
    <glyph glyph-name="Agrave" unicode="&#xc0;" horiz-adv-x="664" 
d="M10 0l233 690h178l233 -690h-91l-70 208h-322l-70 -208h-91zM332 686l-137 -406h274zM382 740h-78l-148 135h121z" />
    <glyph glyph-name="Aacute" unicode="&#xc1;" horiz-adv-x="664" 
d="M10 0l233 690h178l233 -690h-91l-70 208h-322l-70 -208h-91zM332 686l-137 -406h274zM346 740h-78l105 135h121z" />
    <glyph glyph-name="Acircumflex" unicode="&#xc2;" horiz-adv-x="664" 
d="M10 0l233 690h178l233 -690h-91l-70 208h-322l-70 -208h-91zM332 686l-137 -406h274zM403 740l-71 93l-71 -93h-98l124 135h90l124 -135h-98z" />
    <glyph glyph-name="Atilde" unicode="&#xc3;" horiz-adv-x="664" 
d="M10 0l233 690h178l233 -690h-91l-70 208h-322l-70 -208h-91zM332 686l-137 -406h274zM480 786q-22 -19 -41 -27.5t-41 -8.5q-21 0 -38 8t-32 17.5t-29.5 17.5t-32.5 8q-22 0 -41 -8.5t-41 -27.5v63q22 19 41 27.5t41 8.5q21 0 38 -8t32 -17.5t29.5 -17.5t32.5 -8
q22 0 41 8.5t41 27.5v-63z" />
    <glyph glyph-name="Adieresis" unicode="&#xc4;" horiz-adv-x="664" 
d="M10 0l233 690h178l233 -690h-91l-70 208h-322l-70 -208h-91zM332 686l-137 -406h274zM193 759v97h97v-97h-97zM375 759v97h97v-97h-97z" />
    <glyph glyph-name="Aring" unicode="&#xc5;" horiz-adv-x="664" 
d="M10 0l233 690h178l233 -690h-91l-70 208h-322l-70 -208h-91zM332 686l-137 -406h274zM332 735q-30 0 -51 20.5t-21 51.5t21 51.5t51 20.5q29 0 50.5 -20.5t21.5 -51.5t-21.5 -51.5t-50.5 -20.5zM332 779q11 0 19.5 7.5t8.5 20.5t-8.5 20.5t-19.5 7.5t-19.5 -7.5
t-8.5 -20.5t8.5 -20.5t19.5 -7.5z" />
    <glyph glyph-name="AE" unicode="&#xc6;" horiz-adv-x="896" 
d="M838 72v-72h-275l-70 208h-322l-70 -208h-91l233 690h587v-72h-385l77 -228h299v-72h-274l83 -246h208zM332 686l-137 -406h274z" />
    <glyph glyph-name="Ccedilla" unicode="&#xc7;" horiz-adv-x="710" 
d="M50 345q0 74 23 139t64 112.5t99.5 75.5t127.5 28q118 0 198.5 -70.5t101.5 -185.5h-89q-17 87 -71.5 135.5t-135.5 48.5q-50 0 -92 -21t-71.5 -58.5t-45.5 -89.5t-16 -114q0 -128 64.5 -205.5t168.5 -77.5q78 0 133 47.5t72 134.5h89q-21 -115 -102.5 -184.5
t-199.5 -69.5q-69 0 -128 26t-101 73t-65.5 112.5t-23.5 143.5zM376 -170h-87v40h74q19 0 27 3.5t8 11.5t-8 11t-27 3h-74l55 111h46l-35 -71h21q31 0 46.5 -16.5t15.5 -37.5q0 -23 -15.5 -39t-46.5 -16z" />
    <glyph glyph-name="Egrave" unicode="&#xc8;" horiz-adv-x="556" 
d="M93 0v690h397v-72h-311v-228h302v-72h-302v-246h319v-72h-405zM367 740h-78l-148 135h121z" />
    <glyph glyph-name="Eacute" unicode="&#xc9;" horiz-adv-x="556" 
d="M93 0v690h397v-72h-311v-228h302v-72h-302v-246h319v-72h-405zM294 740h-78l105 135h121z" />
    <glyph glyph-name="Ecircumflex" unicode="&#xca;" horiz-adv-x="556" 
d="M93 0v690h397v-72h-311v-228h302v-72h-302v-246h319v-72h-405zM362 740l-71 93l-71 -93h-98l124 135h90l124 -135h-98z" />
    <glyph glyph-name="Edieresis" unicode="&#xcb;" horiz-adv-x="556" 
d="M93 0v690h397v-72h-311v-228h302v-72h-302v-246h319v-72h-405zM152 759v97h97v-97h-97zM334 759v97h97v-97h-97z" />
    <glyph glyph-name="Igrave" unicode="&#xcc;" horiz-adv-x="272" 
d="M179 0h-86v690h86v-690zM174 740h-78l-148 135h121z" />
    <glyph glyph-name="Iacute" unicode="&#xcd;" horiz-adv-x="272" 
d="M179 0h-86v690h86v-690zM176 740h-78l105 135h121z" />
    <glyph glyph-name="Icircumflex" unicode="&#xce;" horiz-adv-x="272" 
d="M179 0h-86v690h86v-690zM207 740l-71 93l-71 -93h-98l124 135h90l124 -135h-98z" />
    <glyph glyph-name="Idieresis" unicode="&#xcf;" horiz-adv-x="272" 
d="M179 0h-86v690h86v-690zM-4 759v97h97v-97h-97zM178 759v97h97v-97h-97z" />
    <glyph glyph-name="Eth" unicode="&#xd0;" horiz-adv-x="701" 
d="M650 345q0 -76 -24 -139.5t-69.5 -109t-111 -71t-147.5 -25.5h-199v310h-78v72h78v308h199q82 0 147.5 -25.5t111 -71t69.5 -109t24 -139.5zM185 72h103q127 0 198 70.5t71 202.5t-71 202.5t-198 70.5h-103v-236h181v-72h-181v-238z" />
    <glyph glyph-name="Ntilde" unicode="&#xd1;" horiz-adv-x="726" 
d="M633 690v-690h-177l-277 686v-686h-86v690h177l277 -686v686h86zM511 786q-22 -19 -41 -27.5t-41 -8.5q-21 0 -38 8t-32 17.5t-29.5 17.5t-32.5 8q-22 0 -41 -8.5t-41 -27.5v63q22 19 41 27.5t41 8.5q21 0 38 -8t32 -17.5t29.5 -17.5t32.5 -8q22 0 41 8.5t41 27.5v-63z
" />
    <glyph glyph-name="Ograve" unicode="&#xd2;" horiz-adv-x="744" 
d="M372 -10q-71 0 -130.5 28t-102 75.5t-66 112.5t-23.5 139t23.5 139t66 112.5t102 75.5t130.5 28t130.5 -28t102 -75.5t66 -112.5t23.5 -139t-23.5 -139t-66 -112.5t-102 -75.5t-130.5 -28zM372 62q51 0 93.5 21t72.5 58.5t46.5 89.5t16.5 114t-16.5 114t-46.5 89.5
t-72.5 58.5t-93.5 21t-93.5 -21t-72.5 -58.5t-46.5 -89.5t-16.5 -114t16.5 -114t46.5 -89.5t72.5 -58.5t93.5 -21zM437 742h-78l-148 135h121z" />
    <glyph glyph-name="Oacute" unicode="&#xd3;" horiz-adv-x="744" 
d="M372 -10q-71 0 -130.5 28t-102 75.5t-66 112.5t-23.5 139t23.5 139t66 112.5t102 75.5t130.5 28t130.5 -28t102 -75.5t66 -112.5t23.5 -139t-23.5 -139t-66 -112.5t-102 -75.5t-130.5 -28zM372 62q51 0 93.5 21t72.5 58.5t46.5 89.5t16.5 114t-16.5 114t-46.5 89.5
t-72.5 58.5t-93.5 21t-93.5 -21t-72.5 -58.5t-46.5 -89.5t-16.5 -114t16.5 -114t46.5 -89.5t72.5 -58.5t93.5 -21zM389 740h-78l105 135h121z" />
    <glyph glyph-name="Ocircumflex" unicode="&#xd4;" horiz-adv-x="744" 
d="M443 740l-71 93l-71 -93h-98l124 135h90l124 -135h-98zM372 -10q-71 0 -130.5 28t-102 75.5t-66 112.5t-23.5 139t23.5 139t66 112.5t102 75.5t130.5 28t130.5 -28t102 -75.5t66 -112.5t23.5 -139t-23.5 -139t-66 -112.5t-102 -75.5t-130.5 -28zM372 62q51 0 93.5 21
t72.5 58.5t46.5 89.5t16.5 114t-16.5 114t-46.5 89.5t-72.5 58.5t-93.5 21t-93.5 -21t-72.5 -58.5t-46.5 -89.5t-16.5 -114t16.5 -114t46.5 -89.5t72.5 -58.5t93.5 -21z" />
    <glyph glyph-name="Otilde" unicode="&#xd5;" horiz-adv-x="744" 
d="M372 -10q-71 0 -130.5 28t-102 75.5t-66 112.5t-23.5 139t23.5 139t66 112.5t102 75.5t130.5 28t130.5 -28t102 -75.5t66 -112.5t23.5 -139t-23.5 -139t-66 -112.5t-102 -75.5t-130.5 -28zM372 62q51 0 93.5 21t72.5 58.5t46.5 89.5t16.5 114t-16.5 114t-46.5 89.5
t-72.5 58.5t-93.5 21t-93.5 -21t-72.5 -58.5t-46.5 -89.5t-16.5 -114t16.5 -114t46.5 -89.5t72.5 -58.5t93.5 -21zM520 786q-22 -19 -41 -27.5t-41 -8.5q-21 0 -38 8t-32 17.5t-29.5 17.5t-32.5 8q-22 0 -41 -8.5t-41 -27.5v63q22 19 41 27.5t41 8.5q21 0 38 -8t32 -17.5
t29.5 -17.5t32.5 -8q22 0 41 8.5t41 27.5v-63z" />
    <glyph glyph-name="Odieresis" unicode="&#xd6;" horiz-adv-x="744" 
d="M232 759v97h97v-97h-97zM414 759v97h97v-97h-97zM372 -10q-71 0 -130.5 28t-102 75.5t-66 112.5t-23.5 139t23.5 139t66 112.5t102 75.5t130.5 28t130.5 -28t102 -75.5t66 -112.5t23.5 -139t-23.5 -139t-66 -112.5t-102 -75.5t-130.5 -28zM372 62q51 0 93.5 21t72.5 58.5
t46.5 89.5t16.5 114t-16.5 114t-46.5 89.5t-72.5 58.5t-93.5 21t-93.5 -21t-72.5 -58.5t-46.5 -89.5t-16.5 -114t16.5 -114t46.5 -89.5t72.5 -58.5t93.5 -21z" />
    <glyph glyph-name="multiply" unicode="&#xd7;" 
d="M436 69l-156 157l-156 -156l-45 44l156 156l-156 156l45 44l156 -155l156 156l44 -45l-156 -156l156 -156z" />
    <glyph glyph-name="Oslash" unicode="&#xd8;" horiz-adv-x="762" 
d="M703 345q0 -74 -23.5 -139t-66 -112.5t-102 -75.5t-130.5 -28q-63 0 -116.5 21.5t-94.5 59.5l-66 -71h-89l112 120q-32 46 -50 103.5t-18 121.5q0 74 23.5 139t66 112.5t102 75.5t130.5 28q63 0 116.5 -22t94.5 -60l67 72h89l-113 -121q32 -46 50 -103.5t18 -120.5z
M152 345q0 -46 9.5 -86.5t25.5 -73.5l350 375q-29 32 -69 50t-87 18q-51 0 -93.5 -21t-72.5 -58.5t-46.5 -89.5t-16.5 -114zM610 345q0 46 -9 86t-26 74l-350 -375q30 -32 69.5 -50t86.5 -18q51 0 93.5 21t72.5 58.5t46.5 89.5t16.5 114z" />
    <glyph glyph-name="Ugrave" unicode="&#xd9;" horiz-adv-x="682" 
d="M510 260v430h86v-415q0 -146 -68 -215.5t-187 -69.5t-187 69.5t-68 215.5v415h86v-430q0 -90 39.5 -144t129.5 -54t129.5 54t39.5 144zM395 740h-78l-148 135h121z" />
    <glyph glyph-name="Uacute" unicode="&#xda;" horiz-adv-x="682" 
d="M510 260v430h86v-415q0 -146 -68 -215.5t-187 -69.5t-187 69.5t-68 215.5v415h86v-430q0 -90 39.5 -144t129.5 -54t129.5 54t39.5 144zM355 740h-78l105 135h121z" />
    <glyph glyph-name="Ucircumflex" unicode="&#xdb;" horiz-adv-x="682" 
d="M412 740l-71 93l-71 -93h-98l124 135h90l124 -135h-98zM510 260v430h86v-415q0 -146 -68 -215.5t-187 -69.5t-187 69.5t-68 215.5v415h86v-430q0 -90 39.5 -144t129.5 -54t129.5 54t39.5 144z" />
    <glyph glyph-name="Udieresis" unicode="&#xdc;" horiz-adv-x="682" 
d="M202 759v97h97v-97h-97zM384 759v97h97v-97h-97zM510 260v430h86v-415q0 -146 -68 -215.5t-187 -69.5t-187 69.5t-68 215.5v415h86v-430q0 -90 39.5 -144t129.5 -54t129.5 54t39.5 144z" />
    <glyph glyph-name="Yacute" unicode="&#xdd;" horiz-adv-x="618" 
d="M309 740h-78l105 135h121zM352 306v-306h-86v306l-257 384h97l203 -303l203 303h97z" />
    <glyph glyph-name="Thorn" unicode="&#xde;" horiz-adv-x="634" 
d="M319 151h-140v-151h-86v690h86v-126h140q125 0 198.5 -53t73.5 -153t-73.5 -153.5t-198.5 -53.5zM329 223q80 0 124.5 34.5t44.5 100.5t-44.5 100t-124.5 34h-150v-269h150z" />
    <glyph glyph-name="germandbls" unicode="&#xdf;" horiz-adv-x="605" 
d="M159 0h-83v454q0 122 61.5 184t162.5 62q97 0 160 -48t63 -129q0 -62 -40 -107.5t-97 -55.5v-2q33 -5 64.5 -17t55.5 -32t39 -49.5t15 -69.5q0 -93 -60.5 -141.5t-176.5 -48.5h-76v66h37q86 0 136 24.5t50 105.5q0 40 -18 65t-46.5 39t-64 19t-70.5 6v68q81 2 121.5 30
t40.5 102q0 60 -40.5 84.5t-94.5 24.5q-63 0 -101 -37.5t-38 -124.5v-472z" />
    <glyph glyph-name="agrave" unicode="&#xe0;" horiz-adv-x="531" 
d="M377 323q0 56 -30.5 88.5t-88.5 32.5q-57 0 -86 -29t-31 -73h-83q2 34 16 65t39 53.5t61.5 36t83.5 13.5q41 0 78 -11t64.5 -35.5t43.5 -64t16 -95.5v-304h-80v98h-2q-19 -51 -62 -79.5t-101 -28.5q-36 0 -67.5 10.5t-55.5 30.5t-37.5 49t-13.5 65q0 38 16 64.5
t42.5 43.5t62 26t75.5 13l140 15v16zM235 56q66 0 104 40t38 121v27l-133 -15q-56 -6 -84.5 -27t-28.5 -61q0 -37 30 -61t74 -24zM316 555h-78l-148 135h121z" />
    <glyph glyph-name="aacute" unicode="&#xe1;" horiz-adv-x="531" 
d="M377 323q0 56 -30.5 88.5t-88.5 32.5q-57 0 -86 -29t-31 -73h-83q2 34 16 65t39 53.5t61.5 36t83.5 13.5q41 0 78 -11t64.5 -35.5t43.5 -64t16 -95.5v-304h-80v98h-2q-19 -51 -62 -79.5t-101 -28.5q-36 0 -67.5 10.5t-55.5 30.5t-37.5 49t-13.5 65q0 38 16 64.5
t42.5 43.5t62 26t75.5 13l140 15v16zM235 56q66 0 104 40t38 121v27l-133 -15q-56 -6 -84.5 -27t-28.5 -61q0 -37 30 -61t74 -24zM260 555h-78l105 135h121z" />
    <glyph glyph-name="acircumflex" unicode="&#xe2;" horiz-adv-x="531" 
d="M377 323q0 56 -30.5 88.5t-88.5 32.5q-57 0 -86 -29t-31 -73h-83q2 34 16 65t39 53.5t61.5 36t83.5 13.5q41 0 78 -11t64.5 -35.5t43.5 -64t16 -95.5v-304h-80v98h-2q-19 -51 -62 -79.5t-101 -28.5q-36 0 -67.5 10.5t-55.5 30.5t-37.5 49t-13.5 65q0 38 16 64.5
t42.5 43.5t62 26t75.5 13l140 15v16zM235 56q66 0 104 40t38 121v27l-133 -15q-56 -6 -84.5 -27t-28.5 -61q0 -37 30 -61t74 -24zM329 555l-71 93l-71 -93h-98l124 135h90l124 -135h-98z" />
    <glyph glyph-name="atilde" unicode="&#xe3;" horiz-adv-x="531" 
d="M377 323q0 56 -30.5 88.5t-88.5 32.5q-57 0 -86 -29t-31 -73h-83q2 34 16 65t39 53.5t61.5 36t83.5 13.5q41 0 78 -11t64.5 -35.5t43.5 -64t16 -95.5v-304h-80v98h-2q-19 -51 -62 -79.5t-101 -28.5q-36 0 -67.5 10.5t-55.5 30.5t-37.5 49t-13.5 65q0 38 16 64.5
t42.5 43.5t62 26t75.5 13l140 15v16zM235 56q66 0 104 40t38 121v27l-133 -15q-56 -6 -84.5 -27t-28.5 -61q0 -37 30 -61t74 -24zM406 602q-22 -19 -41 -27.5t-41 -8.5q-21 0 -38 8t-32 17.5t-29.5 17.5t-32.5 8q-22 0 -41 -8.5t-41 -27.5v63q22 19 41 27.5t41 8.5
q21 0 38 -8t32 -17.5t29.5 -17.5t32.5 -8q22 0 41 8.5t41 27.5v-63z" />
    <glyph glyph-name="adieresis" unicode="&#xe4;" horiz-adv-x="531" 
d="M377 323q0 56 -30.5 88.5t-88.5 32.5q-57 0 -86 -29t-31 -73h-83q2 34 16 65t39 53.5t61.5 36t83.5 13.5q41 0 78 -11t64.5 -35.5t43.5 -64t16 -95.5v-304h-80v98h-2q-19 -51 -62 -79.5t-101 -28.5q-36 0 -67.5 10.5t-55.5 30.5t-37.5 49t-13.5 65q0 38 16 64.5
t42.5 43.5t62 26t75.5 13l140 15v16zM235 56q66 0 104 40t38 121v27l-133 -15q-56 -6 -84.5 -27t-28.5 -61q0 -37 30 -61t74 -24zM118 575v97h97v-97h-97zM300 575v97h97v-97h-97z" />
    <glyph glyph-name="aring" unicode="&#xe5;" horiz-adv-x="531" 
d="M377 323q0 56 -30.5 88.5t-88.5 32.5q-57 0 -86 -29t-31 -73h-83q2 34 16 65t39 53.5t61.5 36t83.5 13.5q41 0 78 -11t64.5 -35.5t43.5 -64t16 -95.5v-304h-80v98h-2q-19 -51 -62 -79.5t-101 -28.5q-36 0 -67.5 10.5t-55.5 30.5t-37.5 49t-13.5 65q0 38 16 64.5
t42.5 43.5t62 26t75.5 13l140 15v16zM235 56q66 0 104 40t38 121v27l-133 -15q-56 -6 -84.5 -27t-28.5 -61q0 -37 30 -61t74 -24zM258 550q-30 0 -51 20.5t-21 51.5t21 51.5t51 20.5q29 0 50.5 -20.5t21.5 -51.5t-21.5 -51.5t-50.5 -20.5zM258 594q11 0 19.5 7.5t8.5 20.5
t-8.5 20.5t-19.5 7.5t-19.5 -7.5t-8.5 -20.5t8.5 -20.5t19.5 -7.5z" />
    <glyph glyph-name="ae" unicode="&#xe6;" horiz-adv-x="876" 
d="M824 158q-7 -33 -22 -63.5t-41 -53.5t-63.5 -37t-88.5 -14q-65 0 -113 28.5t-77 74.5v0q-27 -49 -81 -76t-123 -27q-36 0 -67.5 10.5t-55.5 30.5t-37.5 49t-13.5 65q0 38 16 64.5t42.5 43.5t62 26t75.5 13l140 15v16q0 56 -30.5 88.5t-88.5 32.5q-57 0 -86 -29t-31 -73
h-83q2 34 16 65t39 53.5t61.5 36t83.5 13.5q70 0 107 -31.5t54 -66.5q28 44 74 71t112 27q56 0 100 -21t73.5 -58.5t43 -90t8.5 -115.5h-369q3 -78 45 -123.5t111 -45.5q32 0 54.5 10t36 25.5t21.5 33.5t12 33h83zM605 444q-66 0 -102 -43t-42 -110h287q-5 67 -41 110
t-102 43zM235 56q66 0 104 40t38 121v27l-133 -15q-56 -6 -84.5 -27t-28.5 -61q0 -37 30 -61t74 -24z" />
    <glyph glyph-name="ccedilla" unicode="&#xe7;" horiz-adv-x="537" 
d="M46 250q0 50 16.5 97t46.5 83t72.5 58t95.5 22q90 0 146.5 -45.5t72.5 -131.5h-83q-11 60 -46.5 85.5t-84.5 25.5q-35 0 -62.5 -15.5t-46 -42t-28 -61.5t-9.5 -75q0 -41 10 -76.5t29 -61.5t47.5 -41t65.5 -15q48 0 83.5 26.5t46.5 86.5h83q-16 -86 -73 -132.5t-147 -46.5
q-54 0 -97.5 21t-74 56.5t-47 83t-16.5 99.5zM295 -170h-87v40h74q19 0 27 3.5t8 11.5t-8 11t-27 3h-74l55 111h46l-35 -71h21q31 0 46.5 -16.5t15.5 -37.5q0 -23 -15.5 -39t-46.5 -16z" />
    <glyph glyph-name="egrave" unicode="&#xe8;" horiz-adv-x="545" 
d="M322 555h-78l-148 135h121zM493 158q-7 -33 -22 -63.5t-41 -53.5t-63.5 -37t-88.5 -14q-56 0 -99 21t-72.5 56.5t-45 83t-15.5 99.5t14.5 99.5t43.5 83t71.5 56.5t98.5 21t100 -21t73.5 -58.5t43 -90t8.5 -115.5h-369q3 -78 45 -123.5t111 -45.5q32 0 54.5 10t36 25.5
t21.5 33.5t12 33h83zM274 444q-66 0 -102 -43t-42 -110h287q-5 67 -41 110t-102 43z" />
    <glyph glyph-name="eacute" unicode="&#xe9;" horiz-adv-x="545" 
d="M282 555h-78l105 135h121zM493 158q-7 -33 -22 -63.5t-41 -53.5t-63.5 -37t-88.5 -14q-56 0 -99 21t-72.5 56.5t-45 83t-15.5 99.5t14.5 99.5t43.5 83t71.5 56.5t98.5 21t100 -21t73.5 -58.5t43 -90t8.5 -115.5h-369q3 -78 45 -123.5t111 -45.5q32 0 54.5 10t36 25.5
t21.5 33.5t12 33h83zM274 444q-66 0 -102 -43t-42 -110h287q-5 67 -41 110t-102 43z" />
    <glyph glyph-name="ecircumflex" unicode="&#xea;" horiz-adv-x="545" 
d="M493 158q-7 -33 -22 -63.5t-41 -53.5t-63.5 -37t-88.5 -14q-56 0 -99 21t-72.5 56.5t-45 83t-15.5 99.5t14.5 99.5t43.5 83t71.5 56.5t98.5 21t100 -21t73.5 -58.5t43 -90t8.5 -115.5h-369q3 -78 45 -123.5t111 -45.5q32 0 54.5 10t36 25.5t21.5 33.5t12 33h83zM274 444
q-66 0 -102 -43t-42 -110h287q-5 67 -41 110t-102 43zM345 555l-71 93l-71 -93h-98l124 135h90l124 -135h-98z" />
    <glyph glyph-name="edieresis" unicode="&#xeb;" horiz-adv-x="545" 
d="M134 575v97h97v-97h-97zM316 575v97h97v-97h-97zM493 158q-7 -33 -22 -63.5t-41 -53.5t-63.5 -37t-88.5 -14q-56 0 -99 21t-72.5 56.5t-45 83t-15.5 99.5t14.5 99.5t43.5 83t71.5 56.5t98.5 21t100 -21t73.5 -58.5t43 -90t8.5 -115.5h-369q3 -78 45 -123.5t111 -45.5
q32 0 54.5 10t36 25.5t21.5 33.5t12 33h83zM274 444q-66 0 -102 -43t-42 -110h287q-5 67 -41 110t-102 43z" />
    <glyph glyph-name="igrave" unicode="&#xec;" horiz-adv-x="235" 
d="M159 500v-500h-83v500h83zM156 555h-78l-148 135h121z" />
    <glyph glyph-name="iacute" unicode="&#xed;" horiz-adv-x="235" 
d="M159 500v-500h-83v500h83zM157 555h-78l105 135h121z" />
    <glyph glyph-name="icircumflex" unicode="&#xee;" horiz-adv-x="235" 
d="M159 500v-500h-83v500h83zM189 555l-71 93l-71 -93h-98l124 135h90l124 -135h-98z" />
    <glyph glyph-name="idieresis" unicode="&#xef;" horiz-adv-x="235" 
d="M159 500v-500h-83v500h83zM-22 575v97h97v-97h-97zM160 575v97h97v-97h-97z" />
    <glyph glyph-name="eth" unicode="&#xf0;" horiz-adv-x="576" 
d="M524 275q0 -52 -14 -103t-43.5 -91.5t-75.5 -65.5t-109 -25q-54 0 -98 21.5t-74.5 57t-47 83t-16.5 98.5t13.5 98.5t40.5 83t67.5 57t93.5 21.5q59 0 102.5 -31t64.5 -85h2q-9 53 -38.5 102.5t-75.5 92.5l-96 -48l-23 45l77 39q-23 17 -49.5 33.5t-54.5 31.5h132
q11 -7 22.5 -14t22.5 -15l77 39l23 -45l-58 -29q57 -53 96 -138t39 -213zM136 250q0 -83 39 -138.5t111 -55.5t110 55.5t38 138.5t-38 138.5t-110 55.5t-111 -55.5t-39 -138.5z" />
    <glyph glyph-name="ntilde" unicode="&#xf1;" horiz-adv-x="544" 
d="M390 310q0 62 -27.5 96.5t-87.5 34.5q-61 0 -88.5 -35t-27.5 -88v-318h-83v500h80v-98h2q19 51 57.5 79.5t93.5 28.5q40 0 71 -13.5t51.5 -36.5t31 -54.5t10.5 -66.5v-339h-83v310zM415 602q-22 -19 -41 -27.5t-41 -8.5q-21 0 -38 8t-32 17.5t-29.5 17.5t-32.5 8
q-22 0 -41 -8.5t-41 -27.5v63q22 19 41 27.5t41 8.5q21 0 38 -8t32 -17.5t29.5 -17.5t32.5 -8q22 0 41 8.5t41 27.5v-63z" />
    <glyph glyph-name="ograve" unicode="&#xf2;" horiz-adv-x="570" 
d="M285 -10q-56 0 -100.5 22t-75.5 58t-47.5 83t-16.5 97t16.5 97t47.5 83t75.5 58t100.5 22t100.5 -22t75.5 -58t47.5 -83t16.5 -97t-16.5 -97t-47.5 -83t-75.5 -58t-100.5 -22zM285 56q72 0 111 55.5t39 138.5t-39 138.5t-111 55.5t-111 -55.5t-39 -138.5t39 -138.5
t111 -55.5zM333 555h-78l-148 135h121z" />
    <glyph glyph-name="oacute" unicode="&#xf3;" horiz-adv-x="570" 
d="M285 -10q-56 0 -100.5 22t-75.5 58t-47.5 83t-16.5 97t16.5 97t47.5 83t75.5 58t100.5 22t100.5 -22t75.5 -58t47.5 -83t16.5 -97t-16.5 -97t-47.5 -83t-75.5 -58t-100.5 -22zM285 56q72 0 111 55.5t39 138.5t-39 138.5t-111 55.5t-111 -55.5t-39 -138.5t39 -138.5
t111 -55.5zM293 555h-78l105 135h121z" />
    <glyph glyph-name="ocircumflex" unicode="&#xf4;" horiz-adv-x="570" 
d="M356 555l-71 93l-71 -93h-98l124 135h90l124 -135h-98zM285 -10q-56 0 -100.5 22t-75.5 58t-47.5 83t-16.5 97t16.5 97t47.5 83t75.5 58t100.5 22t100.5 -22t75.5 -58t47.5 -83t16.5 -97t-16.5 -97t-47.5 -83t-75.5 -58t-100.5 -22zM285 56q72 0 111 55.5t39 138.5
t-39 138.5t-111 55.5t-111 -55.5t-39 -138.5t39 -138.5t111 -55.5z" />
    <glyph glyph-name="otilde" unicode="&#xf5;" horiz-adv-x="570" 
d="M285 -10q-56 0 -100.5 22t-75.5 58t-47.5 83t-16.5 97t16.5 97t47.5 83t75.5 58t100.5 22t100.5 -22t75.5 -58t47.5 -83t16.5 -97t-16.5 -97t-47.5 -83t-75.5 -58t-100.5 -22zM285 56q72 0 111 55.5t39 138.5t-39 138.5t-111 55.5t-111 -55.5t-39 -138.5t39 -138.5
t111 -55.5zM433 602q-22 -19 -41 -27.5t-41 -8.5q-21 0 -38 8t-32 17.5t-29.5 17.5t-32.5 8q-22 0 -41 -8.5t-41 -27.5v63q22 19 41 27.5t41 8.5q21 0 38 -8t32 -17.5t29.5 -17.5t32.5 -8q22 0 41 8.5t41 27.5v-63z" />
    <glyph glyph-name="odieresis" unicode="&#xf6;" horiz-adv-x="570" 
d="M285 -10q-56 0 -100.5 22t-75.5 58t-47.5 83t-16.5 97t16.5 97t47.5 83t75.5 58t100.5 22t100.5 -22t75.5 -58t47.5 -83t16.5 -97t-16.5 -97t-47.5 -83t-75.5 -58t-100.5 -22zM285 56q72 0 111 55.5t39 138.5t-39 138.5t-111 55.5t-111 -55.5t-39 -138.5t39 -138.5
t111 -55.5zM145 575v97h97v-97h-97zM327 575v97h97v-97h-97z" />
    <glyph glyph-name="divide" unicode="&#xf7;" 
d="M510 237h-460v66h460v-66zM232 40v97h97v-97h-97zM232 403v97h97v-97h-97z" />
    <glyph glyph-name="oslash" unicode="&#xf8;" horiz-adv-x="590" 
d="M535 250q0 -50 -16.5 -97t-47.5 -83t-75.5 -58t-100.5 -22q-45 0 -82.5 14t-66.5 39l-40 -43h-89l85 91q-22 34 -34.5 75t-12.5 84q0 50 16.5 97t47.5 83t75.5 58t100.5 22q45 0 82.5 -14t66.5 -39l40 43h89l-85 -91q22 -34 34.5 -75t12.5 -84zM145 250q0 -26 4 -50.5
t12 -45.5l233 249q-19 19 -43.5 30t-55.5 11q-72 0 -111 -55.5t-39 -138.5zM445 250q0 26 -4 50.5t-12 45.5l-233 -249q19 -19 43.5 -30t55.5 -11q72 0 111 55.5t39 138.5z" />
    <glyph glyph-name="ugrave" unicode="&#xf9;" horiz-adv-x="540" 
d="M155 190q0 -62 27 -96.5t86 -34.5q63 0 88 35t25 88v318h83v-500h-80v98h-2q-19 -51 -54.5 -79.5t-88.5 -28.5q-41 0 -72.5 13.5t-52.5 36.5t-31.5 54.5t-10.5 66.5v339h83v-310zM350 555h-78l-148 135h121z" />
    <glyph glyph-name="uacute" unicode="&#xfa;" horiz-adv-x="540" 
d="M155 190q0 -62 27 -96.5t86 -34.5q63 0 88 35t25 88v318h83v-500h-80v98h-2q-19 -51 -54.5 -79.5t-88.5 -28.5q-41 0 -72.5 13.5t-52.5 36.5t-31.5 54.5t-10.5 66.5v339h83v-310zM273 555h-78l105 135h121z" />
    <glyph glyph-name="ucircumflex" unicode="&#xfb;" horiz-adv-x="540" 
d="M155 190q0 -62 27 -96.5t86 -34.5q63 0 88 35t25 88v318h83v-500h-80v98h-2q-19 -51 -54.5 -79.5t-88.5 -28.5q-41 0 -72.5 13.5t-52.5 36.5t-31.5 54.5t-10.5 66.5v339h83v-310zM339 555l-71 93l-71 -93h-98l124 135h90l124 -135h-98z" />
    <glyph glyph-name="udieresis" unicode="&#xfc;" horiz-adv-x="540" 
d="M155 190q0 -62 27 -96.5t86 -34.5q63 0 88 35t25 88v318h83v-500h-80v98h-2q-19 -51 -54.5 -79.5t-88.5 -28.5q-41 0 -72.5 13.5t-52.5 36.5t-31.5 54.5t-10.5 66.5v339h83v-310zM129 575v97h97v-97h-97zM311 575v97h97v-97h-97z" />
    <glyph glyph-name="yacute" unicode="&#xfd;" horiz-adv-x="526" 
d="M512 500l-240 -670h-86l79 220h-82l-164 450h86l162 -444l159 444h86zM268 555h-78l105 135h121z" />
    <glyph glyph-name="thorn" unicode="&#xfe;" horiz-adv-x="590" 
d="M543 250q0 -51 -13.5 -98.5t-40.5 -83t-67.5 -57t-93.5 -21.5q-59 0 -102.5 31t-64.5 85h-2v-276h-83v860h83v-296h2q21 54 64.5 85t102.5 31q53 0 93.5 -21.5t67.5 -57t40.5 -83t13.5 -98.5zM453 250q0 83 -39 138.5t-111 55.5t-110 -55.5t-38 -138.5t38 -138.5
t110 -55.5t111 55.5t39 138.5z" />
    <glyph glyph-name="ydieresis" unicode="&#xff;" horiz-adv-x="526" 
d="M512 500l-240 -670h-86l79 220h-82l-164 450h86l162 -444l159 444h86zM124 575v97h97v-97h-97zM306 575v97h97v-97h-97z" />
    <glyph glyph-name="Amacron" unicode="&#x100;" horiz-adv-x="664" 
d="M10 0l233 690h178l233 -690h-91l-70 208h-322l-70 -208h-91zM332 686l-137 -406h274zM182 775v66h301v-66h-301z" />
    <glyph glyph-name="amacron" unicode="&#x101;" horiz-adv-x="531" 
d="M377 323q0 56 -30.5 88.5t-88.5 32.5q-57 0 -86 -29t-31 -73h-83q2 34 16 65t39 53.5t61.5 36t83.5 13.5q41 0 78 -11t64.5 -35.5t43.5 -64t16 -95.5v-304h-80v98h-2q-19 -51 -62 -79.5t-101 -28.5q-36 0 -67.5 10.5t-55.5 30.5t-37.5 49t-13.5 65q0 38 16 64.5
t42.5 43.5t62 26t75.5 13l140 15v16zM235 56q66 0 104 40t38 121v27l-133 -15q-56 -6 -84.5 -27t-28.5 -61q0 -37 30 -61t74 -24zM107 590v66h301v-66h-301z" />
    <glyph glyph-name="Abreve" unicode="&#x102;" horiz-adv-x="664" 
d="M10 0l233 690h178l233 -690h-91l-70 208h-322l-70 -208h-91zM332 686l-137 -406h274zM332 790q30 0 50 19t20 66h63q0 -54 -31.5 -94.5t-101.5 -40.5t-101.5 40.5t-31.5 94.5h63q0 -47 20 -66t50 -19z" />
    <glyph glyph-name="abreve" unicode="&#x103;" horiz-adv-x="531" 
d="M377 323q0 56 -30.5 88.5t-88.5 32.5q-57 0 -86 -29t-31 -73h-83q2 34 16 65t39 53.5t61.5 36t83.5 13.5q41 0 78 -11t64.5 -35.5t43.5 -64t16 -95.5v-304h-80v98h-2q-19 -51 -62 -79.5t-101 -28.5q-36 0 -67.5 10.5t-55.5 30.5t-37.5 49t-13.5 65q0 38 16 64.5
t42.5 43.5t62 26t75.5 13l140 15v16zM235 56q66 0 104 40t38 121v27l-133 -15q-56 -6 -84.5 -27t-28.5 -61q0 -37 30 -61t74 -24zM258 605q30 0 50 19t20 66h63q0 -54 -31.5 -94.5t-101.5 -40.5t-101.5 40.5t-31.5 94.5h63q0 -47 20 -66t50 -19z" />
    <glyph glyph-name="Aogonek" unicode="&#x104;" horiz-adv-x="664" 
d="M10 0l233 690h178l233 -690h-91l-70 208h-322l-70 -208h-91zM332 686l-137 -406h274zM563 0h91q-32 -13 -57.5 -29t-25.5 -44q0 -23 16.5 -29t49.5 -6h16v-62h-33q-50 0 -90 16t-40 64q0 34 20.5 56t52.5 34z" />
    <glyph glyph-name="aogonek" unicode="&#x105;" horiz-adv-x="531" 
d="M307 -90q0 34 20.5 56t52.5 34v98h-2q-19 -51 -62 -79.5t-101 -28.5q-36 0 -67.5 10.5t-55.5 30.5t-37.5 49t-13.5 65q0 38 16 64.5t42.5 43.5t62 26t75.5 13l140 15v16q0 56 -30.5 88.5t-88.5 32.5q-57 0 -86 -29t-31 -73h-83q2 34 16 65t39 53.5t61.5 36t83.5 13.5
q41 0 78 -11t64.5 -35.5t43.5 -64t16 -95.5v-304q-32 -13 -57.5 -31t-25.5 -44q0 -25 16.5 -33.5t49.5 -8.5h20v-53h-26q-50 0 -90 16t-40 64zM235 56q66 0 104 40t38 121v27l-133 -15q-56 -6 -84.5 -27t-28.5 -61q0 -37 30 -61t74 -24z" />
    <glyph glyph-name="Cacute" unicode="&#x106;" horiz-adv-x="711" 
d="M51 345q0 74 23 139t64 112.5t99.5 75.5t127.5 28q118 0 198.5 -70.5t101.5 -185.5h-89q-17 87 -71.5 135.5t-135.5 48.5q-50 0 -92 -21t-71.5 -58.5t-45.5 -89.5t-16 -114q0 -128 64.5 -205.5t168.5 -77.5q78 0 133 47.5t72 134.5h89q-21 -115 -102.5 -184.5
t-199.5 -69.5q-69 0 -128 26t-101 73t-65.5 112.5t-23.5 143.5zM376 740h-78l105 135h121z" />
    <glyph glyph-name="cacute" unicode="&#x107;" horiz-adv-x="537" 
d="M46 250q0 50 16.5 97t46.5 83t72.5 58t95.5 22q90 0 146.5 -45.5t72.5 -131.5h-83q-11 60 -46.5 85.5t-84.5 25.5q-35 0 -62.5 -15.5t-46 -42t-28 -61.5t-9.5 -75q0 -41 10 -76.5t29 -61.5t47.5 -41t65.5 -15q48 0 83.5 26.5t46.5 86.5h83q-16 -86 -73 -132.5t-147 -46.5
q-54 0 -97.5 21t-74 56.5t-47 83t-16.5 99.5zM285 555h-78l105 135h121z" />
    <glyph glyph-name="Ccircumflex" unicode="&#x108;" horiz-adv-x="711" 
d="M51 345q0 74 23 139t64 112.5t99.5 75.5t127.5 28q118 0 198.5 -70.5t101.5 -185.5h-89q-17 87 -71.5 135.5t-135.5 48.5q-50 0 -92 -21t-71.5 -58.5t-45.5 -89.5t-16 -114q0 -128 64.5 -205.5t168.5 -77.5q78 0 133 47.5t72 134.5h89q-21 -115 -102.5 -184.5
t-199.5 -69.5q-69 0 -128 26t-101 73t-65.5 112.5t-23.5 143.5zM436 740l-71 93l-71 -93h-98l124 135h90l124 -135h-98z" />
    <glyph glyph-name="ccircumflex" unicode="&#x109;" horiz-adv-x="537" 
d="M46 250q0 50 16.5 97t46.5 83t72.5 58t95.5 22q90 0 146.5 -45.5t72.5 -131.5h-83q-11 60 -46.5 85.5t-84.5 25.5q-35 0 -62.5 -15.5t-46 -42t-28 -61.5t-9.5 -75q0 -41 10 -76.5t29 -61.5t47.5 -41t65.5 -15q48 0 83.5 26.5t46.5 86.5h83q-16 -86 -73 -132.5t-147 -46.5
q-54 0 -97.5 21t-74 56.5t-47 83t-16.5 99.5zM348 555l-71 93l-71 -93h-98l124 135h90l124 -135h-98z" />
    <glyph glyph-name="Cdotaccent" unicode="&#x10a;" horiz-adv-x="711" 
d="M51 345q0 74 23 139t64 112.5t99.5 75.5t127.5 28q118 0 198.5 -70.5t101.5 -185.5h-89q-17 87 -71.5 135.5t-135.5 48.5q-50 0 -92 -21t-71.5 -58.5t-45.5 -89.5t-16 -114q0 -128 64.5 -205.5t168.5 -77.5q78 0 133 47.5t72 134.5h89q-21 -115 -102.5 -184.5
t-199.5 -69.5q-69 0 -128 26t-101 73t-65.5 112.5t-23.5 143.5zM314 759v97h97v-97h-97z" />
    <glyph glyph-name="cdotaccent" unicode="&#x10b;" horiz-adv-x="537" 
d="M46 250q0 50 16.5 97t46.5 83t72.5 58t95.5 22q90 0 146.5 -45.5t72.5 -131.5h-83q-11 60 -46.5 85.5t-84.5 25.5q-35 0 -62.5 -15.5t-46 -42t-28 -61.5t-9.5 -75q0 -41 10 -76.5t29 -61.5t47.5 -41t65.5 -15q48 0 83.5 26.5t46.5 86.5h83q-16 -86 -73 -132.5t-147 -46.5
q-54 0 -97.5 21t-74 56.5t-47 83t-16.5 99.5zM229 575v97h97v-97h-97z" />
    <glyph glyph-name="Ccaron" unicode="&#x10c;" horiz-adv-x="711" 
d="M51 345q0 74 23 139t64 112.5t99.5 75.5t127.5 28q118 0 198.5 -70.5t101.5 -185.5h-89q-17 87 -71.5 135.5t-135.5 48.5q-50 0 -92 -21t-71.5 -58.5t-45.5 -89.5t-16 -114q0 -128 64.5 -205.5t168.5 -77.5q78 0 133 47.5t72 134.5h89q-21 -115 -102.5 -184.5
t-199.5 -69.5q-69 0 -128 26t-101 73t-65.5 112.5t-23.5 143.5zM365 782l71 93h98l-124 -135h-90l-124 135h98z" />
    <glyph glyph-name="ccaron" unicode="&#x10d;" horiz-adv-x="537" 
d="M46 250q0 50 16.5 97t46.5 83t72.5 58t95.5 22q90 0 146.5 -45.5t72.5 -131.5h-83q-11 60 -46.5 85.5t-84.5 25.5q-35 0 -62.5 -15.5t-46 -42t-28 -61.5t-9.5 -75q0 -41 10 -76.5t29 -61.5t47.5 -41t65.5 -15q48 0 83.5 26.5t46.5 86.5h83q-16 -86 -73 -132.5t-147 -46.5
q-54 0 -97.5 21t-74 56.5t-47 83t-16.5 99.5zM277 597l71 93h98l-124 -135h-90l-124 135h98z" />
    <glyph glyph-name="Dcaron" unicode="&#x10e;" horiz-adv-x="695" 
d="M93 0v690h199q82 0 147.5 -25.5t111 -71t69.5 -109t24 -139.5t-24 -139.5t-69.5 -109t-111 -71t-147.5 -25.5h-199zM282 618h-103v-546h103q127 0 198 70.5t71 202.5t-71 202.5t-198 70.5zM318 782l71 93h98l-124 -135h-90l-124 135h98z" />
    <glyph glyph-name="dcaron" unicode="&#x10f;" horiz-adv-x="619" 
d="M47 250q0 51 13.5 98.5t40.5 83t67.5 57t93.5 21.5q59 0 102.5 -31t64.5 -85h2v296h83v-690h-83v106h-2q-21 -54 -64.5 -85t-102.5 -31q-53 0 -93.5 21.5t-67.5 57t-40.5 83t-13.5 98.5zM137 250q0 -83 39 -138.5t111 -55.5t110 55.5t38 138.5t-38 138.5t-110 55.5
t-111 -55.5t-39 -138.5zM621 526h-57l54 164h95z" />
    <glyph glyph-name="Dcroat" unicode="&#x110;" horiz-adv-x="701" 
d="M650 345q0 -76 -24 -139.5t-69.5 -109t-111 -71t-147.5 -25.5h-199v310h-78v72h78v308h199q82 0 147.5 -25.5t111 -71t69.5 -109t24 -139.5zM185 72h103q127 0 198 70.5t71 202.5t-71 202.5t-198 70.5h-103v-236h181v-72h-181v-238z" />
    <glyph glyph-name="dcroat" unicode="&#x111;" horiz-adv-x="590" 
d="M429 106q-21 -54 -64.5 -85t-102.5 -31q-53 0 -93.5 21.5t-67.5 57t-40.5 83t-13.5 98.5t13.5 98.5t40.5 83t67.5 57t93.5 21.5q59 0 102.5 -31t64.5 -85h2v173h-114v66h114v57h83v-57h61v-66h-61v-567h-83v106h-2zM137 250q0 -83 39 -138.5t111 -55.5t110 55.5t38 138.5
t-38 138.5t-110 55.5t-111 -55.5t-39 -138.5z" />
    <glyph glyph-name="Emacron" unicode="&#x112;" horiz-adv-x="556" 
d="M93 0v690h397v-72h-311v-228h302v-72h-302v-246h319v-72h-405zM141 775v66h301v-66h-301z" />
    <glyph glyph-name="emacron" unicode="&#x113;" horiz-adv-x="545" 
d="M493 158q-7 -33 -22 -63.5t-41 -53.5t-63.5 -37t-88.5 -14q-56 0 -99 21t-72.5 56.5t-45 83t-15.5 99.5t14.5 99.5t43.5 83t71.5 56.5t98.5 21t100 -21t73.5 -58.5t43 -90t8.5 -115.5h-369q3 -78 45 -123.5t111 -45.5q32 0 54.5 10t36 25.5t21.5 33.5t12 33h83zM274 444
q-66 0 -102 -43t-42 -110h287q-5 67 -41 110t-102 43zM121 590v66h301v-66h-301z" />
    <glyph glyph-name="Ebreve" unicode="&#x114;" horiz-adv-x="556" 
d="M93 0v690h397v-72h-311v-228h302v-72h-302v-246h319v-72h-405zM291 790q30 0 50 19t20 66h63q0 -54 -31.5 -94.5t-101.5 -40.5t-101.5 40.5t-31.5 94.5h63q0 -47 20 -66t50 -19z" />
    <glyph glyph-name="ebreve" unicode="&#x115;" horiz-adv-x="545" 
d="M493 158q-7 -33 -22 -63.5t-41 -53.5t-63.5 -37t-88.5 -14q-56 0 -99 21t-72.5 56.5t-45 83t-15.5 99.5t14.5 99.5t43.5 83t71.5 56.5t98.5 21t100 -21t73.5 -58.5t43 -90t8.5 -115.5h-369q3 -78 45 -123.5t111 -45.5q32 0 54.5 10t36 25.5t21.5 33.5t12 33h83zM274 444
q-66 0 -102 -43t-42 -110h287q-5 67 -41 110t-102 43zM274 605q30 0 50 19t20 66h63q0 -54 -31.5 -94.5t-101.5 -40.5t-101.5 40.5t-31.5 94.5h63q0 -47 20 -66t50 -19z" />
    <glyph glyph-name="Edotaccent" unicode="&#x116;" horiz-adv-x="556" 
d="M93 0v690h397v-72h-311v-228h302v-72h-302v-246h319v-72h-405zM243 759v97h97v-97h-97z" />
    <glyph glyph-name="edotaccent" unicode="&#x117;" horiz-adv-x="545" 
d="M493 158q-7 -33 -22 -63.5t-41 -53.5t-63.5 -37t-88.5 -14q-56 0 -99 21t-72.5 56.5t-45 83t-15.5 99.5t14.5 99.5t43.5 83t71.5 56.5t98.5 21t100 -21t73.5 -58.5t43 -90t8.5 -115.5h-369q3 -78 45 -123.5t111 -45.5q32 0 54.5 10t36 25.5t21.5 33.5t12 33h83zM274 444
q-66 0 -102 -43t-42 -110h287q-5 67 -41 110t-102 43zM225 575v97h97v-97h-97z" />
    <glyph glyph-name="Eogonek" unicode="&#x118;" horiz-adv-x="556" 
d="M93 0v690h397v-72h-311v-228h302v-72h-302v-246h319v-72h-405zM407 0h91q-32 -13 -57.5 -29t-25.5 -44q0 -23 16.5 -29t49.5 -6h16v-62h-33q-50 0 -90 16t-40 64q0 34 20.5 56t52.5 34z" />
    <glyph glyph-name="eogonek" unicode="&#x119;" horiz-adv-x="545" 
d="M493 158q-7 -33 -22 -63.5t-41 -53.5t-63.5 -37t-88.5 -14q-56 0 -99 21t-72.5 56.5t-45 83t-15.5 99.5t14.5 99.5t43.5 83t71.5 56.5t98.5 21t100 -21t73.5 -58.5t43 -90t8.5 -115.5h-369q3 -78 45 -123.5t111 -45.5q32 0 54.5 10t36 25.5t21.5 33.5t12 33h83zM274 444
q-66 0 -102 -43t-42 -110h287q-5 67 -41 110t-102 43zM267 0h83q-32 -13 -57.5 -31t-25.5 -44q0 -25 16.5 -33.5t49.5 -8.5h17v-53h-26q-50 0 -90 16t-40 64q0 34 20.5 56t52.5 34z" />
    <glyph glyph-name="Ecaron" unicode="&#x11a;" horiz-adv-x="556" 
d="M93 0v690h397v-72h-311v-228h302v-72h-302v-246h319v-72h-405zM291 782l71 93h98l-124 -135h-90l-124 135h98z" />
    <glyph glyph-name="ecaron" unicode="&#x11b;" horiz-adv-x="545" 
d="M493 158q-7 -33 -22 -63.5t-41 -53.5t-63.5 -37t-88.5 -14q-56 0 -99 21t-72.5 56.5t-45 83t-15.5 99.5t14.5 99.5t43.5 83t71.5 56.5t98.5 21t100 -21t73.5 -58.5t43 -90t8.5 -115.5h-369q3 -78 45 -123.5t111 -45.5q32 0 54.5 10t36 25.5t21.5 33.5t12 33h83zM274 444
q-66 0 -102 -43t-42 -110h287q-5 67 -41 110t-102 43zM274 597l71 93h98l-124 -135h-90l-124 135h98z" />
    <glyph glyph-name="Gcircumflex" unicode="&#x11c;" horiz-adv-x="729" 
d="M579 254v29h-234v72h322v-355h-82v147h-2q-10 -29 -29 -57.5t-45.5 -50.5t-62.5 -35.5t-81 -13.5q-71 0 -129.5 28t-99 75.5t-63 112.5t-22.5 139t21.5 139t62.5 112.5t100 75.5t134 28q65 0 116 -19.5t87.5 -52t58.5 -74.5t29 -86h-89q-5 31 -19.5 60t-38 51t-58 35.5
t-80.5 13.5q-56 0 -99.5 -21t-72.5 -58.5t-44 -89.5t-15 -114t15.5 -114t45 -89.5t73.5 -58.5t100 -21q49 0 87 15.5t63 41.5t38 61t13 74zM440 740l-71 93l-71 -93h-98l124 135h90l124 -135h-98z" />
    <glyph glyph-name="gcircumflex" unicode="&#x11d;" horiz-adv-x="591" 
d="M432 17v109h-2q-21 -54 -64.5 -85t-102.5 -31q-53 0 -93.5 19.5t-67.5 53.5t-40.5 80t-13.5 97t13.5 97t40.5 80t67.5 53.5t93.5 19.5q59 0 102.5 -31t64.5 -85h2v106h83v-483q0 -84 -56 -140.5t-164 -56.5q-99 0 -153 45t-64 121h83q8 -53 46.5 -76.5t87.5 -23.5
q58 0 97.5 32.5t39.5 98.5zM138 260q0 -83 39 -133.5t111 -50.5t110 50.5t38 133.5t-38 133.5t-110 50.5t-111 -50.5t-39 -133.5zM364 555l-71 93l-71 -93h-98l124 135h90l124 -135h-98z" />
    <glyph glyph-name="Gbreve" unicode="&#x11e;" horiz-adv-x="729" 
d="M579 254v29h-234v72h322v-355h-82v147h-2q-10 -29 -29 -57.5t-45.5 -50.5t-62.5 -35.5t-81 -13.5q-71 0 -129.5 28t-99 75.5t-63 112.5t-22.5 139t21.5 139t62.5 112.5t100 75.5t134 28q65 0 116 -19.5t87.5 -52t58.5 -74.5t29 -86h-89q-5 31 -19.5 60t-38 51t-58 35.5
t-80.5 13.5q-56 0 -99.5 -21t-72.5 -58.5t-44 -89.5t-15 -114t15.5 -114t45 -89.5t73.5 -58.5t100 -21q49 0 87 15.5t63 41.5t38 61t13 74zM369 790q30 0 50 19t20 66h63q0 -54 -31.5 -94.5t-101.5 -40.5t-101.5 40.5t-31.5 94.5h63q0 -47 20 -66t50 -19z" />
    <glyph glyph-name="gbreve" unicode="&#x11f;" horiz-adv-x="591" 
d="M432 17v109h-2q-21 -54 -64.5 -85t-102.5 -31q-53 0 -93.5 19.5t-67.5 53.5t-40.5 80t-13.5 97t13.5 97t40.5 80t67.5 53.5t93.5 19.5q59 0 102.5 -31t64.5 -85h2v106h83v-483q0 -84 -56 -140.5t-164 -56.5q-99 0 -153 45t-64 121h83q8 -53 46.5 -76.5t87.5 -23.5
q58 0 97.5 32.5t39.5 98.5zM138 260q0 -83 39 -133.5t111 -50.5t110 50.5t38 133.5t-38 133.5t-110 50.5t-111 -50.5t-39 -133.5zM295 605q30 0 50 19t20 66h63q0 -54 -31.5 -94.5t-101.5 -40.5t-101.5 40.5t-31.5 94.5h63q0 -47 20 -66t50 -19z" />
    <glyph glyph-name="Gdotaccent" unicode="&#x120;" horiz-adv-x="729" 
d="M579 254v29h-234v72h322v-355h-82v147h-2q-10 -29 -29 -57.5t-45.5 -50.5t-62.5 -35.5t-81 -13.5q-71 0 -129.5 28t-99 75.5t-63 112.5t-22.5 139t21.5 139t62.5 112.5t100 75.5t134 28q65 0 116 -19.5t87.5 -52t58.5 -74.5t29 -86h-89q-5 31 -19.5 60t-38 51t-58 35.5
t-80.5 13.5q-56 0 -99.5 -21t-72.5 -58.5t-44 -89.5t-15 -114t15.5 -114t45 -89.5t73.5 -58.5t100 -21q49 0 87 15.5t63 41.5t38 61t13 74zM318 759v97h97v-97h-97z" />
    <glyph glyph-name="gdotaccent" unicode="&#x121;" horiz-adv-x="591" 
d="M432 17v109h-2q-21 -54 -64.5 -85t-102.5 -31q-53 0 -93.5 19.5t-67.5 53.5t-40.5 80t-13.5 97t13.5 97t40.5 80t67.5 53.5t93.5 19.5q59 0 102.5 -31t64.5 -85h2v106h83v-483q0 -84 -56 -140.5t-164 -56.5q-99 0 -153 45t-64 121h83q8 -53 46.5 -76.5t87.5 -23.5
q58 0 97.5 32.5t39.5 98.5zM138 260q0 -83 39 -133.5t111 -50.5t110 50.5t38 133.5t-38 133.5t-110 50.5t-111 -50.5t-39 -133.5zM237 575v97h97v-97h-97z" />
    <glyph glyph-name="Gcommaaccent" unicode="&#x122;" horiz-adv-x="729" 
d="M579 254v29h-234v72h322v-355h-82v147h-2q-10 -29 -29 -57.5t-45.5 -50.5t-62.5 -35.5t-81 -13.5q-71 0 -129.5 28t-99 75.5t-63 112.5t-22.5 139t21.5 139t62.5 112.5t100 75.5t134 28q65 0 116 -19.5t87.5 -52t58.5 -74.5t29 -86h-89q-5 31 -19.5 60t-38 51t-58 35.5
t-80.5 13.5q-56 0 -99.5 -21t-72.5 -58.5t-44 -89.5t-15 -114t15.5 -114t45 -89.5t73.5 -58.5t100 -21q49 0 87 15.5t63 41.5t38 61t13 74zM290 -245l69 98h-38v97h97v-97l-69 -98h-59z" />
    <glyph glyph-name="gcommaaccent" unicode="&#x123;" horiz-adv-x="591" 
d="M432 17v109h-2q-21 -54 -64.5 -85t-102.5 -31q-53 0 -93.5 19.5t-67.5 53.5t-40.5 80t-13.5 97t13.5 97t40.5 80t67.5 53.5t93.5 19.5q59 0 102.5 -31t64.5 -85h2v106h83v-483q0 -84 -56 -140.5t-164 -56.5q-99 0 -153 45t-64 121h83q8 -53 46.5 -76.5t87.5 -23.5
q58 0 97.5 32.5t39.5 98.5zM138 260q0 -83 39 -133.5t111 -50.5t110 50.5t38 133.5t-38 133.5t-110 50.5t-111 -50.5t-39 -133.5z" />
    <glyph glyph-name="Hcircumflex" unicode="&#x124;" horiz-adv-x="686" 
d="M507 690h86v-690h-86v316h-328v-316h-86v690h86v-302h328v302zM414 740l-71 93l-71 -93h-98l124 135h90l124 -135h-98z" />
    <glyph glyph-name="hcircumflex" unicode="&#x125;" horiz-adv-x="544" 
d="M187 715l-71 93l-71 -93h-98l124 135h90l124 -135h-98zM390 310q0 62 -27.5 96.5t-87.5 34.5q-61 0 -88.5 -35t-27.5 -88v-318h-83v690h80v-288h2q19 51 57.5 79.5t93.5 28.5q40 0 71 -13.5t51.5 -36.5t31 -54.5t10.5 -66.5v-339h-83v310z" />
    <glyph glyph-name="Hbar" unicode="&#x126;" horiz-adv-x="694" 
d="M667 501h-70v-501h-86v316h-328v-316h-86v501h-70v72h70v117h86v-117h328v117h86v-117h70v-72zM183 388h328v113h-328v-113z" />
    <glyph glyph-name="hbar" unicode="&#x127;" horiz-adv-x="544" 
d="M159 318v-318h-83v567h-61v66h61v57h80v-57h117v-66h-117v-165h2q19 51 57.5 79.5t93.5 28.5q40 0 71 -13.5t51.5 -36.5t31 -54.5t10.5 -66.5v-339h-83v310q0 62 -27.5 96.5t-87.5 34.5q-61 0 -88.5 -35t-27.5 -88z" />
    <glyph glyph-name="Itilde" unicode="&#x128;" horiz-adv-x="272" 
d="M179 0h-86v690h86v-690zM284 786q-22 -19 -41 -27.5t-41 -8.5q-21 0 -38 8t-32 17.5t-29.5 17.5t-32.5 8q-22 0 -41 -8.5t-41 -27.5v63q22 19 41 27.5t41 8.5q21 0 38 -8t32 -17.5t29.5 -17.5t32.5 -8q22 0 41 8.5t41 27.5v-63z" />
    <glyph glyph-name="itilde" unicode="&#x129;" horiz-adv-x="235" 
d="M159 500v-500h-83v500h83zM266 602q-22 -19 -41 -27.5t-41 -8.5q-21 0 -38 8t-32 17.5t-29.5 17.5t-32.5 8q-22 0 -41 -8.5t-41 -27.5v63q22 19 41 27.5t41 8.5q21 0 38 -8t32 -17.5t29.5 -17.5t32.5 -8q22 0 41 8.5t41 27.5v-63z" />
    <glyph glyph-name="Imacron" unicode="&#x12a;" horiz-adv-x="272" 
d="M179 0h-86v690h86v-690zM-15 775v66h301v-66h-301z" />
    <glyph glyph-name="imacron" unicode="&#x12b;" horiz-adv-x="235" 
d="M159 500v-500h-83v500h83zM-33 590v66h301v-66h-301z" />
    <glyph glyph-name="Ibreve" unicode="&#x12c;" horiz-adv-x="272" 
d="M179 0h-86v690h86v-690zM136 790q30 0 50 19t20 66h63q0 -54 -31.5 -94.5t-101.5 -40.5t-101.5 40.5t-31.5 94.5h63q0 -47 20 -66t50 -19z" />
    <glyph glyph-name="ibreve" unicode="&#x12d;" horiz-adv-x="235" 
d="M159 500v-500h-83v500h83zM118 605q30 0 50 19t20 66h63q0 -54 -31.5 -94.5t-101.5 -40.5t-101.5 40.5t-31.5 94.5h63q0 -47 20 -66t50 -19z" />
    <glyph glyph-name="Iogonek" unicode="&#x12e;" horiz-adv-x="272" 
d="M20 -90q0 34 20.5 56t52.5 34v690h86v-690q-32 -13 -57.5 -29t-25.5 -44q0 -23 19 -29t52 -6h16v-62h-33q-50 0 -90 16t-40 64z" />
    <glyph glyph-name="iogonek" unicode="&#x12f;" horiz-adv-x="235" 
d="M159 500v-500h-83v500h83zM76 0h83q-32 -13 -57.5 -31t-25.5 -44q0 -25 16.5 -33.5t49.5 -8.5h17v-53h-26q-50 0 -90 16t-40 64q0 34 20.5 56t52.5 34zM69 593v97h97v-97h-97z" />
    <glyph glyph-name="Idotaccent" unicode="&#x130;" horiz-adv-x="272" 
d="M179 0h-86v690h86v-690zM87 759v97h97v-97h-97z" />
    <glyph glyph-name="dotlessi" unicode="&#x131;" horiz-adv-x="235" 
d="M159 500v-500h-83v500h83z" />
    <glyph glyph-name="Jcircumflex" unicode="&#x134;" horiz-adv-x="371" 
d="M197 166v524h86v-535q0 -87 -38.5 -121t-122.5 -34h-108v72h96q51 0 69 22.5t18 71.5zM311 740l-71 93l-71 -93h-98l124 135h90l124 -135h-98z" />
    <glyph glyph-name="jcircumflex" unicode="&#x135;" horiz-adv-x="235" 
d="M159 500v-558q0 -54 -26.5 -83t-89.5 -29h-58v66h35q31 0 43.5 13t12.5 42v549h83zM189 555l-71 93l-71 -93h-98l124 135h90l124 -135h-98z" />
    <glyph glyph-name="Kcommaaccent" unicode="&#x136;" horiz-adv-x="625" 
d="M515 0l-336 354v-354h-86v690h86v-324l302 324h114l-308 -330l342 -360h-114zM264 -245l69 98h-38v97h97v-97l-69 -98h-59z" />
    <glyph glyph-name="kcommaaccent" unicode="&#x137;" horiz-adv-x="513" 
d="M397 0l-238 277v-277h-83v690h83v-407l228 217h106l-231 -220l240 -280h-105zM197 -245l69 98h-38v97h97v-97l-69 -98h-59z" />
    <glyph glyph-name="Lacute" unicode="&#x139;" horiz-adv-x="507" 
d="M494 72v-72h-401v690h86v-618h315zM176 740h-78l105 135h121z" />
    <glyph glyph-name="lacute" unicode="&#x13a;" horiz-adv-x="235" 
d="M76 0v690h83v-690h-83zM157 730h-78l105 135h121z" />
    <glyph glyph-name="Lcommaaccent" unicode="&#x13b;" horiz-adv-x="507" 
d="M494 72v-72h-401v690h86v-618h315zM214 -245l69 98h-38v97h97v-97l-69 -98h-59z" />
    <glyph glyph-name="lcommaaccent" unicode="&#x13c;" horiz-adv-x="235" 
d="M76 0v690h83v-690h-83zM38 -245l69 98h-38v97h97v-97l-69 -98h-59z" />
    <glyph glyph-name="Lcaron" unicode="&#x13d;" horiz-adv-x="508" 
d="M494 72v-72h-401v690h86v-618h315zM310 526h-57l54 164h95z" />
    <glyph glyph-name="lcaron" unicode="&#x13e;" horiz-adv-x="264" 
d="M76 0v690h83v-690h-83zM266 526h-57l54 164h95z" />
    <glyph glyph-name="Ldot" unicode="&#x13f;" horiz-adv-x="510" 
d="M494 72v-72h-401v690h86v-618h315zM343 305v97h97v-97h-97z" />
    <glyph glyph-name="ldot" unicode="&#x140;" horiz-adv-x="332" 
d="M76 0v690h83v-690h-83zM235 302v97h97v-97h-97z" />
    <glyph glyph-name="Lslash" unicode="&#x141;" horiz-adv-x="515" 
d="M501 72v-72h-401v263l-70 -45v81l70 45v346h86v-291l153 99v-81l-153 -99v-246h315z" />
    <glyph glyph-name="lslash" unicode="&#x142;" horiz-adv-x="316" 
d="M279 388l-79 -55v-333h-83v275l-78 -54v78l78 54v337h83v-279l79 55v-78z" />
    <glyph glyph-name="Nacute" unicode="&#x143;" horiz-adv-x="726" 
d="M633 690v-690h-177l-277 686v-686h-86v690h177l277 -686v686h86zM358 740h-78l105 135h121z" />
    <glyph glyph-name="nacute" unicode="&#x144;" horiz-adv-x="544" 
d="M390 310q0 62 -27.5 96.5t-87.5 34.5q-61 0 -88.5 -35t-27.5 -88v-318h-83v500h80v-98h2q19 51 57.5 79.5t93.5 28.5q40 0 71 -13.5t51.5 -36.5t31 -54.5t10.5 -66.5v-339h-83v310zM290 555h-78l105 135h121z" />
    <glyph glyph-name="Ncommaaccent" unicode="&#x145;" horiz-adv-x="726" 
d="M633 690v-690h-177l-277 686v-686h-86v690h177l277 -686v686h86zM286 -245l69 98h-38v97h97v-97l-69 -98h-59z" />
    <glyph glyph-name="ncommaaccent" unicode="&#x146;" horiz-adv-x="544" 
d="M390 310q0 62 -27.5 96.5t-87.5 34.5q-61 0 -88.5 -35t-27.5 -88v-318h-83v500h80v-98h2q19 51 57.5 79.5t93.5 28.5q40 0 71 -13.5t51.5 -36.5t31 -54.5t10.5 -66.5v-339h-83v310zM195 -245l69 98h-38v97h97v-97l-69 -98h-59z" />
    <glyph glyph-name="Ncaron" unicode="&#x147;" horiz-adv-x="726" 
d="M633 690v-690h-177l-277 686v-686h-86v690h177l277 -686v686h86zM363 782l71 93h98l-124 -135h-90l-124 135h98z" />
    <glyph glyph-name="ncaron" unicode="&#x148;" horiz-adv-x="544" 
d="M390 310q0 62 -27.5 96.5t-87.5 34.5q-61 0 -88.5 -35t-27.5 -88v-318h-83v500h80v-98h2q19 51 57.5 79.5t93.5 28.5q40 0 71 -13.5t51.5 -36.5t31 -54.5t10.5 -66.5v-339h-83v310zM271 597l71 93h98l-124 -135h-90l-124 135h98z" />
    <glyph glyph-name="Eng" unicode="&#x14a;" horiz-adv-x="726" 
d="M633 690v-690h-177l-277 686v-686h-86v690h177l277 -686v686h86zM547 -4v524h86v-535q0 -87 -38.5 -121t-122.5 -34h-108v72h96q51 0 69 22.5t18 71.5z" />
    <glyph glyph-name="eng" unicode="&#x14b;" horiz-adv-x="544" 
d="M334 -104q31 0 43.5 13t12.5 42v359q0 62 -27.5 96.5t-87.5 34.5q-61 0 -88.5 -35t-27.5 -88v-318h-83v500h80v-98h2q19 51 57.5 79.5t93.5 28.5q40 0 71 -13.5t51.5 -36.5t31 -54.5t10.5 -66.5v-397q0 -54 -26.5 -83t-89.5 -29h-58v66h35z" />
    <glyph glyph-name="Omacron" unicode="&#x14c;" horiz-adv-x="744" 
d="M372 -10q-71 0 -130.5 28t-102 75.5t-66 112.5t-23.5 139t23.5 139t66 112.5t102 75.5t130.5 28t130.5 -28t102 -75.5t66 -112.5t23.5 -139t-23.5 -139t-66 -112.5t-102 -75.5t-130.5 -28zM372 62q51 0 93.5 21t72.5 58.5t46.5 89.5t16.5 114t-16.5 114t-46.5 89.5
t-72.5 58.5t-93.5 21t-93.5 -21t-72.5 -58.5t-46.5 -89.5t-16.5 -114t16.5 -114t46.5 -89.5t72.5 -58.5t93.5 -21zM221 775v66h301v-66h-301z" />
    <glyph glyph-name="omacron" unicode="&#x14d;" horiz-adv-x="570" 
d="M134 590v66h301v-66h-301zM285 -10q-56 0 -100.5 22t-75.5 58t-47.5 83t-16.5 97t16.5 97t47.5 83t75.5 58t100.5 22t100.5 -22t75.5 -58t47.5 -83t16.5 -97t-16.5 -97t-47.5 -83t-75.5 -58t-100.5 -22zM285 56q72 0 111 55.5t39 138.5t-39 138.5t-111 55.5t-111 -55.5
t-39 -138.5t39 -138.5t111 -55.5z" />
    <glyph glyph-name="Obreve" unicode="&#x14e;" horiz-adv-x="744" 
d="M372 -10q-71 0 -130.5 28t-102 75.5t-66 112.5t-23.5 139t23.5 139t66 112.5t102 75.5t130.5 28t130.5 -28t102 -75.5t66 -112.5t23.5 -139t-23.5 -139t-66 -112.5t-102 -75.5t-130.5 -28zM372 62q51 0 93.5 21t72.5 58.5t46.5 89.5t16.5 114t-16.5 114t-46.5 89.5
t-72.5 58.5t-93.5 21t-93.5 -21t-72.5 -58.5t-46.5 -89.5t-16.5 -114t16.5 -114t46.5 -89.5t72.5 -58.5t93.5 -21zM372 790q30 0 50 19t20 66h63q0 -54 -31.5 -94.5t-101.5 -40.5t-101.5 40.5t-31.5 94.5h63q0 -47 20 -66t50 -19z" />
    <glyph glyph-name="obreve" unicode="&#x14f;" horiz-adv-x="570" 
d="M285 -10q-56 0 -100.5 22t-75.5 58t-47.5 83t-16.5 97t16.5 97t47.5 83t75.5 58t100.5 22t100.5 -22t75.5 -58t47.5 -83t16.5 -97t-16.5 -97t-47.5 -83t-75.5 -58t-100.5 -22zM285 56q72 0 111 55.5t39 138.5t-39 138.5t-111 55.5t-111 -55.5t-39 -138.5t39 -138.5
t111 -55.5zM285 605q30 0 50 19t20 66h63q0 -54 -31.5 -94.5t-101.5 -40.5t-101.5 40.5t-31.5 94.5h63q0 -47 20 -66t50 -19z" />
    <glyph glyph-name="Ohungarumlaut" unicode="&#x150;" horiz-adv-x="744" 
d="M372 -10q-71 0 -130.5 28t-102 75.5t-66 112.5t-23.5 139t23.5 139t66 112.5t102 75.5t130.5 28t130.5 -28t102 -75.5t66 -112.5t23.5 -139t-23.5 -139t-66 -112.5t-102 -75.5t-130.5 -28zM372 62q51 0 93.5 21t72.5 58.5t46.5 89.5t16.5 114t-16.5 114t-46.5 89.5
t-72.5 58.5t-93.5 21t-93.5 -21t-72.5 -58.5t-46.5 -89.5t-16.5 -114t16.5 -114t46.5 -89.5t72.5 -58.5t93.5 -21zM307 740h-78l105 135h121zM480 740h-78l105 135h121z" />
    <glyph glyph-name="ohungarumlaut" unicode="&#x151;" horiz-adv-x="570" 
d="M285 -10q-56 0 -100.5 22t-75.5 58t-47.5 83t-16.5 97t16.5 97t47.5 83t75.5 58t100.5 22t100.5 -22t75.5 -58t47.5 -83t16.5 -97t-16.5 -97t-47.5 -83t-75.5 -58t-100.5 -22zM285 56q72 0 111 55.5t39 138.5t-39 138.5t-111 55.5t-111 -55.5t-39 -138.5t39 -138.5
t111 -55.5zM206 555h-78l105 135h121zM379 555h-78l105 135h121z" />
    <glyph glyph-name="OE" unicode="&#x152;" horiz-adv-x="1071" 
d="M372 -10q-71 0 -130.5 28t-102 75.5t-66 112.5t-23.5 139t23.5 139t66 112.5t102 75.5t130.5 28t130.5 -28t102 -75.5t66 -112.5t23.5 -139t-23.5 -139t-66 -112.5t-102 -75.5t-130.5 -28zM372 62q51 0 93.5 21t72.5 58.5t46.5 89.5t16.5 114t-16.5 114t-46.5 89.5
t-72.5 58.5t-93.5 21t-93.5 -21t-72.5 -58.5t-46.5 -89.5t-16.5 -114t16.5 -114t46.5 -89.5t72.5 -58.5t93.5 -21zM608 0v690h397v-72h-311v-228h302v-72h-302v-246h319v-72h-405z" />
    <glyph glyph-name="oe" unicode="&#x153;" horiz-adv-x="939" 
d="M285 -10q-56 0 -100.5 22t-75.5 58t-47.5 83t-16.5 97t16.5 97t47.5 83t75.5 58t100.5 22t100.5 -22t75.5 -58t47.5 -83t16.5 -97t-16.5 -97t-47.5 -83t-75.5 -58t-100.5 -22zM285 56q72 0 111 55.5t39 138.5t-39 138.5t-111 55.5t-111 -55.5t-39 -138.5t39 -138.5
t111 -55.5zM887 158q-7 -33 -22 -63.5t-41 -53.5t-63.5 -37t-88.5 -14q-56 0 -99 21t-72.5 56.5t-45 83t-15.5 99.5t14.5 99.5t43.5 83t71.5 56.5t98.5 21t100 -21t73.5 -58.5t43 -90t8.5 -115.5h-369q3 -78 45 -123.5t111 -45.5q32 0 54.5 10t36 25.5t21.5 33.5t12 33h83z
M668 444q-66 0 -102 -43t-42 -110h287q-5 67 -41 110t-102 43z" />
    <glyph glyph-name="Racute" unicode="&#x154;" horiz-adv-x="630" 
d="M93 0v690h214q125 0 195 -51.5t70 -147.5q0 -73 -41.5 -121t-117.5 -67l172 -303h-99l-165 291h-7h-7h-128v-291h-86zM317 618h-138v-255h138q80 0 121 33t41 95t-41 94.5t-121 32.5zM309 740h-78l105 135h121z" />
    <glyph glyph-name="racute" unicode="&#x155;" horiz-adv-x="331" 
d="M159 300v-300h-83v500h80v-98h2q19 51 57.5 79.5t93.5 28.5v-90h-18q-60 0 -96 -26.5t-36 -93.5zM168 555h-78l105 135h121z" />
    <glyph glyph-name="Rcommaaccent" unicode="&#x156;" horiz-adv-x="630" 
d="M93 0v690h214q125 0 195 -51.5t70 -147.5q0 -73 -41.5 -121t-117.5 -67l172 -303h-99l-165 291h-7h-7h-128v-291h-86zM317 618h-138v-255h138q80 0 121 33t41 95t-41 94.5t-121 32.5zM246 -245l69 98h-38v97h97v-97l-69 -98h-59z" />
    <glyph glyph-name="rcommaaccent" unicode="&#x157;" horiz-adv-x="331" 
d="M159 300v-300h-83v500h80v-98h2q19 51 57.5 79.5t93.5 28.5v-90h-18q-60 0 -96 -26.5t-36 -93.5zM38 -245l69 98h-38v97h97v-97l-69 -98h-59z" />
    <glyph glyph-name="Rcaron" unicode="&#x158;" horiz-adv-x="630" 
d="M93 0v690h214q125 0 195 -51.5t70 -147.5q0 -73 -41.5 -121t-117.5 -67l172 -303h-99l-165 291h-7h-7h-128v-291h-86zM317 618h-138v-255h138q80 0 121 33t41 95t-41 94.5t-121 32.5zM291 782l71 93h98l-124 -135h-90l-124 135h98z" />
    <glyph glyph-name="rcaron" unicode="&#x159;" horiz-adv-x="331" 
d="M159 300v-300h-83v500h80v-98h2q19 51 57.5 79.5t93.5 28.5v-90h-18q-60 0 -96 -26.5t-36 -93.5zM167 597l71 93h98l-124 -135h-90l-124 135h98z" />
    <glyph glyph-name="Sacute" unicode="&#x15a;" horiz-adv-x="635" 
d="M393 389q96 -22 146.5 -71t50.5 -139q0 -39 -18 -73.5t-52 -60t-83 -40.5t-110 -15q-68 0 -119.5 21t-86.5 56t-54.5 81t-22.5 95h89q2 -37 17.5 -70t40.5 -57.5t59 -39t73 -14.5q76 0 124.5 32t48.5 86q0 48 -32 77t-98 45l-93 22q-107 25 -159.5 72t-52.5 119
q0 42 19.5 76.5t52.5 58.5t76.5 37t92.5 13q64 0 112.5 -17t81.5 -46t52 -68.5t23 -83.5h-89q-6 61 -51.5 102t-124.5 41q-67 0 -109.5 -28.5t-42.5 -80.5q0 -39 30.5 -63.5t115.5 -44.5zM309 740h-78l105 135h121z" />
    <glyph glyph-name="sacute" unicode="&#x15b;" horiz-adv-x="494" 
d="M371 131q0 25 -19.5 45t-76.5 33l-67 15q-72 16 -113 50t-41 93q0 62 53 102.5t133 40.5q85 0 140.5 -44.5t60.5 -113.5h-83q-5 43 -35.5 67.5t-82.5 24.5q-43 0 -74 -17.5t-31 -51.5q0 -31 24.5 -45t80.5 -27l67 -15q72 -16 108 -54t36 -98q0 -64 -51.5 -105t-148.5 -41
q-49 0 -87.5 16t-65 41.5t-42 59t-17.5 68.5h83q4 -51 40 -85t92 -34q48 0 82.5 20t34.5 55zM255 555h-78l105 135h121z" />
    <glyph glyph-name="Scircumflex" unicode="&#x15c;" horiz-adv-x="635" 
d="M393 389q96 -22 146.5 -71t50.5 -139q0 -39 -18 -73.5t-52 -60t-83 -40.5t-110 -15q-68 0 -119.5 21t-86.5 56t-54.5 81t-22.5 95h89q2 -37 17.5 -70t40.5 -57.5t59 -39t73 -14.5q76 0 124.5 32t48.5 86q0 48 -32 77t-98 45l-93 22q-107 25 -159.5 72t-52.5 119
q0 42 19.5 76.5t52.5 58.5t76.5 37t92.5 13q64 0 112.5 -17t81.5 -46t52 -68.5t23 -83.5h-89q-6 61 -51.5 102t-124.5 41q-67 0 -109.5 -28.5t-42.5 -80.5q0 -39 30.5 -63.5t115.5 -44.5zM373 740l-71 93l-71 -93h-98l124 135h90l124 -135h-98z" />
    <glyph glyph-name="scircumflex" unicode="&#x15d;" horiz-adv-x="494" 
d="M371 131q0 25 -19.5 45t-76.5 33l-67 15q-72 16 -113 50t-41 93q0 62 53 102.5t133 40.5q85 0 140.5 -44.5t60.5 -113.5h-83q-5 43 -35.5 67.5t-82.5 24.5q-43 0 -74 -17.5t-31 -51.5q0 -31 24.5 -45t80.5 -27l67 -15q72 -16 108 -54t36 -98q0 -64 -51.5 -105t-148.5 -41
q-49 0 -87.5 16t-65 41.5t-42 59t-17.5 68.5h83q4 -51 40 -85t92 -34q48 0 82.5 20t34.5 55zM308 555l-71 93l-71 -93h-98l124 135h90l124 -135h-98z" />
    <glyph glyph-name="Scedilla" unicode="&#x15e;" horiz-adv-x="635" 
d="M393 389q96 -22 146.5 -71t50.5 -139q0 -39 -18 -73.5t-52 -60t-83 -40.5t-110 -15q-68 0 -119.5 21t-86.5 56t-54.5 81t-22.5 95h89q2 -37 17.5 -70t40.5 -57.5t59 -39t73 -14.5q76 0 124.5 32t48.5 86q0 48 -32 77t-98 45l-93 22q-107 25 -159.5 72t-52.5 119
q0 42 19.5 76.5t52.5 58.5t76.5 37t92.5 13q64 0 112.5 -17t81.5 -46t52 -68.5t23 -83.5h-89q-6 61 -51.5 102t-124.5 41q-67 0 -109.5 -28.5t-42.5 -80.5q0 -39 30.5 -63.5t115.5 -44.5zM342 -170h-87v40h74q19 0 27 3.5t8 11.5t-8 11t-27 3h-74l55 111h46l-35 -71h21
q31 0 46.5 -16.5t15.5 -37.5q0 -23 -15.5 -39t-46.5 -16z" />
    <glyph glyph-name="scedilla" unicode="&#x15f;" horiz-adv-x="494" 
d="M371 131q0 25 -19.5 45t-76.5 33l-67 15q-72 16 -113 50t-41 93q0 62 53 102.5t133 40.5q85 0 140.5 -44.5t60.5 -113.5h-83q-5 43 -35.5 67.5t-82.5 24.5q-43 0 -74 -17.5t-31 -51.5q0 -31 24.5 -45t80.5 -27l67 -15q72 -16 108 -54t36 -98q0 -64 -51.5 -105t-148.5 -41
q-49 0 -87.5 16t-65 41.5t-42 59t-17.5 68.5h83q4 -51 40 -85t92 -34q48 0 82.5 20t34.5 55zM266 -170h-87v40h74q19 0 27 3.5t8 11.5t-8 11t-27 3h-74l55 111h46l-35 -71h21q31 0 46.5 -16.5t15.5 -37.5q0 -23 -15.5 -39t-46.5 -16z" />
    <glyph glyph-name="Scaron" unicode="&#x160;" horiz-adv-x="635" 
d="M393 389q96 -22 146.5 -71t50.5 -139q0 -39 -18 -73.5t-52 -60t-83 -40.5t-110 -15q-68 0 -119.5 21t-86.5 56t-54.5 81t-22.5 95h89q2 -37 17.5 -70t40.5 -57.5t59 -39t73 -14.5q76 0 124.5 32t48.5 86q0 48 -32 77t-98 45l-93 22q-107 25 -159.5 72t-52.5 119
q0 42 19.5 76.5t52.5 58.5t76.5 37t92.5 13q64 0 112.5 -17t81.5 -46t52 -68.5t23 -83.5h-89q-6 61 -51.5 102t-124.5 41q-67 0 -109.5 -28.5t-42.5 -80.5q0 -39 30.5 -63.5t115.5 -44.5zM302 782l71 93h98l-124 -135h-90l-124 135h98z" />
    <glyph glyph-name="scaron" unicode="&#x161;" horiz-adv-x="494" 
d="M371 131q0 25 -19.5 45t-76.5 33l-67 15q-72 16 -113 50t-41 93q0 62 53 102.5t133 40.5q85 0 140.5 -44.5t60.5 -113.5h-83q-5 43 -35.5 67.5t-82.5 24.5q-43 0 -74 -17.5t-31 -51.5q0 -31 24.5 -45t80.5 -27l67 -15q72 -16 108 -54t36 -98q0 -64 -51.5 -105t-148.5 -41
q-49 0 -87.5 16t-65 41.5t-42 59t-17.5 68.5h83q4 -51 40 -85t92 -34q48 0 82.5 20t34.5 55zM237 597l71 93h98l-124 -135h-90l-124 135h98z" />
    <glyph glyph-name="Tcommaaccent" unicode="&#x162;" horiz-adv-x="574" 
d="M12 618v72h550v-72h-232v-618h-86v618h-232zM208 -245l69 98h-38v97h97v-97l-69 -98h-59z" />
    <glyph glyph-name="tcedilla" unicode="&#x163;" horiz-adv-x="346" 
d="M112 434h-91v66h91v114h83v-114h127v-66h-127v-313q0 -29 12.5 -42t43.5 -13h67v-66h-90q-63 0 -89.5 29t-26.5 83v322zM110 -245l69 98h-38v97h97v-97l-69 -98h-59z" />
    <glyph glyph-name="Tcaron" unicode="&#x164;" horiz-adv-x="574" 
d="M12 618v72h550v-72h-232v-618h-86v618h-232zM287 782l71 93h98l-124 -135h-90l-124 135h98z" />
    <glyph glyph-name="tcaron" unicode="&#x165;" horiz-adv-x="346" 
d="M320 546h-57l54 144h95zM112 434h-91v66h91v114h83v-114h127v-66h-127v-313q0 -29 12.5 -42t43.5 -13h67v-66h-90q-63 0 -89.5 29t-26.5 83v322z" />
    <glyph glyph-name="Tbar" unicode="&#x166;" horiz-adv-x="602" 
d="M26 618v72h550v-72h-232v-216h167v-72h-167v-330h-86v330h-167v72h167v216h-232z" />
    <glyph glyph-name="tbar" unicode="&#x167;" horiz-adv-x="354" 
d="M323 66v-66h-90q-63 0 -89.5 29t-26.5 83v168h-91v66h91v88h-91v66h91v114h83v-114h127v-66h-127v-88h127v-66h-127v-159q0 -29 12.5 -42t43.5 -13h67z" />
    <glyph glyph-name="Utilde" unicode="&#x168;" horiz-adv-x="682" 
d="M510 260v430h86v-415q0 -146 -68 -215.5t-187 -69.5t-187 69.5t-68 215.5v415h86v-430q0 -90 39.5 -144t129.5 -54t129.5 54t39.5 144zM489 786q-22 -19 -41 -27.5t-41 -8.5q-21 0 -38 8t-32 17.5t-29.5 17.5t-32.5 8q-22 0 -41 -8.5t-41 -27.5v63q22 19 41 27.5t41 8.5
q21 0 38 -8t32 -17.5t29.5 -17.5t32.5 -8q22 0 41 8.5t41 27.5v-63z" />
    <glyph glyph-name="utilde" unicode="&#x169;" horiz-adv-x="540" 
d="M155 190q0 -62 27 -96.5t86 -34.5q63 0 88 35t25 88v318h83v-500h-80v98h-2q-19 -51 -54.5 -79.5t-88.5 -28.5q-41 0 -72.5 13.5t-52.5 36.5t-31.5 54.5t-10.5 66.5v339h83v-310zM416 602q-22 -19 -41 -27.5t-41 -8.5q-21 0 -38 8t-32 17.5t-29.5 17.5t-32.5 8
q-22 0 -41 -8.5t-41 -27.5v63q22 19 41 27.5t41 8.5q21 0 38 -8t32 -17.5t29.5 -17.5t32.5 -8q22 0 41 8.5t41 27.5v-63z" />
    <glyph glyph-name="Umacron" unicode="&#x16a;" horiz-adv-x="682" 
d="M510 260v430h86v-415q0 -146 -68 -215.5t-187 -69.5t-187 69.5t-68 215.5v415h86v-430q0 -90 39.5 -144t129.5 -54t129.5 54t39.5 144zM190 775v66h301v-66h-301z" />
    <glyph glyph-name="umacron" unicode="&#x16b;" horiz-adv-x="540" 
d="M155 190q0 -62 27 -96.5t86 -34.5q63 0 88 35t25 88v318h83v-500h-80v98h-2q-19 -51 -54.5 -79.5t-88.5 -28.5q-41 0 -72.5 13.5t-52.5 36.5t-31.5 54.5t-10.5 66.5v339h83v-310zM118 590v66h301v-66h-301z" />
    <glyph glyph-name="Ubreve" unicode="&#x16c;" horiz-adv-x="682" 
d="M510 260v430h86v-415q0 -146 -68 -215.5t-187 -69.5t-187 69.5t-68 215.5v415h86v-430q0 -90 39.5 -144t129.5 -54t129.5 54t39.5 144zM341 790q30 0 50 19t20 66h63q0 -54 -31.5 -94.5t-101.5 -40.5t-101.5 40.5t-31.5 94.5h63q0 -47 20 -66t50 -19z" />
    <glyph glyph-name="ubreve" unicode="&#x16d;" horiz-adv-x="540" 
d="M155 190q0 -62 27 -96.5t86 -34.5q63 0 88 35t25 88v318h83v-500h-80v98h-2q-19 -51 -54.5 -79.5t-88.5 -28.5q-41 0 -72.5 13.5t-52.5 36.5t-31.5 54.5t-10.5 66.5v339h83v-310zM268 605q30 0 50 19t20 66h63q0 -54 -31.5 -94.5t-101.5 -40.5t-101.5 40.5t-31.5 94.5h63
q0 -47 20 -66t50 -19z" />
    <glyph glyph-name="Uring" unicode="&#x16e;" horiz-adv-x="682" 
d="M510 260v430h86v-415q0 -146 -68 -215.5t-187 -69.5t-187 69.5t-68 215.5v415h86v-430q0 -90 39.5 -144t129.5 -54t129.5 54t39.5 144zM341 735q-30 0 -51 20.5t-21 51.5t21 51.5t51 20.5q29 0 50.5 -20.5t21.5 -51.5t-21.5 -51.5t-50.5 -20.5zM341 779q11 0 19.5 7.5
t8.5 20.5t-8.5 20.5t-19.5 7.5t-19.5 -7.5t-8.5 -20.5t8.5 -20.5t19.5 -7.5z" />
    <glyph glyph-name="uring" unicode="&#x16f;" horiz-adv-x="540" 
d="M155 190q0 -62 27 -96.5t86 -34.5q63 0 88 35t25 88v318h83v-500h-80v98h-2q-19 -51 -54.5 -79.5t-88.5 -28.5q-41 0 -72.5 13.5t-52.5 36.5t-31.5 54.5t-10.5 66.5v339h83v-310zM268 550q-30 0 -51 20.5t-21 51.5t21 51.5t51 20.5q29 0 50.5 -20.5t21.5 -51.5
t-21.5 -51.5t-50.5 -20.5zM268 594q11 0 19.5 7.5t8.5 20.5t-8.5 20.5t-19.5 7.5t-19.5 -7.5t-8.5 -20.5t8.5 -20.5t19.5 -7.5z" />
    <glyph glyph-name="Uhungarumlaut" unicode="&#x170;" horiz-adv-x="682" 
d="M510 260v430h86v-415q0 -146 -68 -215.5t-187 -69.5t-187 69.5t-68 215.5v415h86v-430q0 -90 39.5 -144t129.5 -54t129.5 54t39.5 144zM267 740h-78l105 135h121zM440 740h-78l105 135h121z" />
    <glyph glyph-name="uhungarumlaut" unicode="&#x171;" horiz-adv-x="540" 
d="M155 190q0 -62 27 -96.5t86 -34.5q63 0 88 35t25 88v318h83v-500h-80v98h-2q-19 -51 -54.5 -79.5t-88.5 -28.5q-41 0 -72.5 13.5t-52.5 36.5t-31.5 54.5t-10.5 66.5v339h83v-310zM190 555h-78l105 135h121zM363 555h-78l105 135h121z" />
    <glyph glyph-name="Uogonek" unicode="&#x172;" horiz-adv-x="682" 
d="M510 260v430h86v-415q0 -146 -68 -215.5t-187 -69.5t-187 69.5t-68 215.5v415h86v-430q0 -90 39.5 -144t129.5 -54t129.5 54t39.5 144zM335 0h91q-32 -13 -57.5 -29t-25.5 -44q0 -23 16.5 -29t49.5 -6h16v-62h-33q-50 0 -90 16t-40 64q0 34 20.5 56t52.5 34z" />
    <glyph glyph-name="uogonek" unicode="&#x173;" horiz-adv-x="540" 
d="M311 -90q0 34 20.5 56t52.5 34v98h-2q-19 -51 -54.5 -79.5t-88.5 -28.5q-41 0 -72.5 13.5t-52.5 36.5t-31.5 54.5t-10.5 66.5v339h83v-310q0 -62 27 -96.5t86 -34.5q63 0 88 35t25 88v318h83v-500q-32 -13 -57.5 -31t-25.5 -44q0 -25 16.5 -33.5t49.5 -8.5h20v-53h-26
q-50 0 -90 16t-40 64z" />
    <glyph glyph-name="Wcircumflex" unicode="&#x174;" horiz-adv-x="986" 
d="M409 690h168l131 -686l162 686h85l-163 -690h-168l-131 686l-131 -686h-168l-163 690h85l162 -686zM564 740l-71 93l-71 -93h-98l124 135h90l124 -135h-98z" />
    <glyph glyph-name="wcircumflex" unicode="&#x175;" horiz-adv-x="846" 
d="M341 500h164l99 -496l123 496h86l-124 -500h-167l-99 496l-99 -496h-167l-124 500h86l123 -496zM494 555l-71 93l-71 -93h-98l124 135h90l124 -135h-98z" />
    <glyph glyph-name="Ycircumflex" unicode="&#x176;" horiz-adv-x="618" 
d="M352 306v-306h-86v306l-257 384h97l203 -303l203 303h97zM380 740l-71 93l-71 -93h-98l124 135h90l124 -135h-98z" />
    <glyph glyph-name="ycircumflex" unicode="&#x177;" horiz-adv-x="526" 
d="M512 500l-240 -670h-86l79 220h-82l-164 450h86l162 -444l159 444h86zM336 555l-71 93l-71 -93h-98l124 135h90l124 -135h-98z" />
    <glyph glyph-name="Ydieresis" unicode="&#x178;" horiz-adv-x="618" 
d="M352 306v-306h-86v306l-257 384h97l203 -303l203 303h97zM169 759v97h97v-97h-97zM351 759v97h97v-97h-97z" />
    <glyph glyph-name="Zacute" unicode="&#x179;" horiz-adv-x="567" 
d="M39 72l375 546h-366v72h471v-72l-375 -546h384v-72h-489v72zM269 740h-78l105 135h121z" />
    <glyph glyph-name="zacute" unicode="&#x17a;" horiz-adv-x="464" 
d="M41 66l272 368h-265v66h367v-66l-272 -368h281v-66h-383v66zM230 555h-78l105 135h121z" />
    <glyph glyph-name="Zdotaccent" unicode="&#x17b;" horiz-adv-x="567" 
d="M39 72l375 546h-366v72h471v-72l-375 -546h384v-72h-489v72zM235 759v97h97v-97h-97z" />
    <glyph glyph-name="zdotaccent" unicode="&#x17c;" horiz-adv-x="464" 
d="M41 66l272 368h-265v66h367v-66l-272 -368h281v-66h-383v66zM183 575v97h97v-97h-97z" />
    <glyph glyph-name="Zcaron" unicode="&#x17d;" horiz-adv-x="567" 
d="M39 72l375 546h-366v72h471v-72l-375 -546h384v-72h-489v72zM283 782l71 93h98l-124 -135h-90l-124 135h98z" />
    <glyph glyph-name="zcaron" unicode="&#x17e;" horiz-adv-x="464" 
d="M41 66l272 368h-265v66h367v-66l-272 -368h281v-66h-383v66zM232 597l71 93h98l-124 -135h-90l-124 135h98z" />
    <glyph glyph-name="uni018F" unicode="&#x18f;" horiz-adv-x="720" 
d="M670 344q0 -71 -20 -135t-59 -112.5t-97.5 -77.5t-134.5 -29q-73 0 -133.5 29.5t-101.5 81.5t-60.5 124t-11.5 156h527q-5 65 -26 111.5t-53 76.5t-72.5 44.5t-83.5 14.5q-45 0 -78.5 -15t-57 -38t-37 -51t-19.5 -54h-91q9 45 31 87t58 73.5t87 50.5t117 19q76 0 135 -29
t99 -77.5t61 -113.5t21 -136zM359 62q42 0 80.5 14t68 44t48.5 77t23 112h-437q5 -116 65 -181.5t152 -65.5z" />
    <glyph glyph-name="Scommaaccent" unicode="&#x218;" horiz-adv-x="635" 
d="M393 389q96 -22 146.5 -71t50.5 -139q0 -39 -18 -73.5t-52 -60t-83 -40.5t-110 -15q-68 0 -119.5 21t-86.5 56t-54.5 81t-22.5 95h89q2 -37 17.5 -70t40.5 -57.5t59 -39t73 -14.5q76 0 124.5 32t48.5 86q0 48 -32 77t-98 45l-93 22q-107 25 -159.5 72t-52.5 119
q0 42 19.5 76.5t52.5 58.5t76.5 37t92.5 13q64 0 112.5 -17t81.5 -46t52 -68.5t23 -83.5h-89q-6 61 -51.5 102t-124.5 41q-67 0 -109.5 -28.5t-42.5 -80.5q0 -39 30.5 -63.5t115.5 -44.5zM248 -245l69 98h-38v97h97v-97l-69 -98h-59z" />
    <glyph glyph-name="scommaaccent" unicode="&#x219;" horiz-adv-x="494" 
d="M371 131q0 25 -19.5 45t-76.5 33l-67 15q-72 16 -113 50t-41 93q0 62 53 102.5t133 40.5q85 0 140.5 -44.5t60.5 -113.5h-83q-5 43 -35.5 67.5t-82.5 24.5q-43 0 -74 -17.5t-31 -51.5q0 -31 24.5 -45t80.5 -27l67 -15q72 -16 108 -54t36 -98q0 -64 -51.5 -105t-148.5 -41
q-49 0 -87.5 16t-65 41.5t-42 59t-17.5 68.5h83q4 -51 40 -85t92 -34q48 0 82.5 20t34.5 55zM171 -245l69 98h-38v97h97v-97l-69 -98h-59z" />
    <glyph glyph-name="Ymacron" unicode="&#x232;" horiz-adv-x="618" 
d="M352 306v-306h-86v306l-257 384h97l203 -303l203 303h97zM159 775v66h301v-66h-301z" />
    <glyph glyph-name="ymacron" unicode="&#x233;" horiz-adv-x="526" 
d="M512 500l-240 -670h-86l79 220h-82l-164 450h86l162 -444l159 444h86zM115 590v66h301v-66h-301z" />
    <glyph glyph-name="dotlessj" unicode="&#x237;" horiz-adv-x="235" 
d="M159 500v-558q0 -54 -26.5 -83t-89.5 -29h-58v66h35q31 0 43.5 13t12.5 42v549h83z" />
    <glyph glyph-name="uni0259" unicode="&#x259;" horiz-adv-x="545" 
d="M53 342q7 33 22 63.5t41 53.5t63.5 37t88.5 14q56 0 99 -21t72.5 -56.5t45 -83t15.5 -99.5t-14.5 -99.5t-43.5 -83t-71.5 -56.5t-98.5 -21t-100 21t-73.5 58.5t-43 90t-8.5 115.5h369q-3 78 -45 123.5t-111 45.5q-32 0 -54.5 -10t-36 -25.5t-21.5 -33.5t-12 -33h-83z
M272 56q66 0 102 43t42 110h-287q5 -67 41 -110t102 -43z" />
    <glyph glyph-name="circumflex" unicode="&#x2c6;" horiz-adv-x="388" 
d="M265 555l-71 93l-71 -93h-98l124 135h90l124 -135h-98z" />
    <glyph glyph-name="caron" unicode="&#x2c7;" horiz-adv-x="388" 
d="M194 597l71 93h98l-124 -135h-90l-124 135h98z" />
    <glyph glyph-name="breve" unicode="&#x2d8;" horiz-adv-x="316" 
d="M158 605q30 0 50 19t20 66h63q0 -54 -31.5 -94.5t-101.5 -40.5t-101.5 40.5t-31.5 94.5h63q0 -47 20 -66t50 -19z" />
    <glyph glyph-name="dotaccent" unicode="&#x2d9;" horiz-adv-x="147" 
d="M25 575v97h97v-97h-97z" />
    <glyph glyph-name="ring" unicode="&#x2da;" horiz-adv-x="194" 
d="M97 550q-30 0 -51 20.5t-21 51.5t21 51.5t51 20.5q29 0 50.5 -20.5t21.5 -51.5t-21.5 -51.5t-50.5 -20.5zM97 594q11 0 19.5 7.5t8.5 20.5t-8.5 20.5t-19.5 7.5t-19.5 -7.5t-8.5 -20.5t8.5 -20.5t19.5 -7.5z" />
    <glyph glyph-name="ogonek" unicode="&#x2db;" horiz-adv-x="206" 
d="M98 0h83q-32 -13 -57.5 -31t-25.5 -44q0 -25 16.5 -33.5t49.5 -8.5h17v-53h-26q-50 0 -90 16t-40 64q0 34 20.5 56t52.5 34z" />
    <glyph glyph-name="tilde" unicode="&#x2dc;" horiz-adv-x="346" 
d="M321 602q-22 -19 -41 -27.5t-41 -8.5q-21 0 -38 8t-32 17.5t-29.5 17.5t-32.5 8q-22 0 -41 -8.5t-41 -27.5v63q22 19 41 27.5t41 8.5q21 0 38 -8t32 -17.5t29.5 -17.5t32.5 -8q22 0 41 8.5t41 27.5v-63z" />
    <glyph glyph-name="hungarumlaut" unicode="&#x2dd;" horiz-adv-x="444" 
d="M98 555h-78l105 135h121zM271 555h-78l105 135h121z" />
    <glyph glyph-name="commaaccent" unicode="&#x326;" horiz-adv-x="147" 
d="M-6 -245l69 98h-38v97h97v-97l-69 -98h-59z" />
    <glyph glyph-name="Wgrave" unicode="&#x1e80;" horiz-adv-x="986" 
d="M409 690h168l131 -686l162 686h85l-163 -690h-168l-131 686l-131 -686h-168l-163 690h85l162 -686zM552 740h-78l-148 135h121z" />
    <glyph glyph-name="wgrave" unicode="&#x1e81;" horiz-adv-x="846" 
d="M341 500h164l99 -496l123 496h86l-124 -500h-167l-99 496l-99 -496h-167l-124 500h86l123 -496zM477 555h-78l-148 135h121z" />
    <glyph glyph-name="Wacute" unicode="&#x1e82;" horiz-adv-x="986" 
d="M409 690h168l131 -686l162 686h85l-163 -690h-168l-131 686l-131 -686h-168l-163 690h85l162 -686zM501 740h-78l105 135h121z" />
    <glyph glyph-name="wacute" unicode="&#x1e83;" horiz-adv-x="846" 
d="M341 500h164l99 -496l123 496h86l-124 -500h-167l-99 496l-99 -496h-167l-124 500h86l123 -496zM435 555h-78l105 135h121z" />
    <glyph glyph-name="Wdieresis" unicode="&#x1e84;" horiz-adv-x="986" 
d="M409 690h168l131 -686l162 686h85l-163 -690h-168l-131 686l-131 -686h-168l-163 690h85l162 -686zM353 759v97h97v-97h-97zM535 759v97h97v-97h-97z" />
    <glyph glyph-name="wdieresis" unicode="&#x1e85;" horiz-adv-x="846" 
d="M341 500h164l99 -496l123 496h86l-124 -500h-167l-99 496l-99 -496h-167l-124 500h86l123 -496zM283 575v97h97v-97h-97zM465 575v97h97v-97h-97z" />
    <glyph glyph-name="idotaccent" unicode="&#x1ecb;" horiz-adv-x="235" 
d="M159 500v-500h-83v500h83zM69 -147v97h97v-97h-97zM69 593v97h97v-97h-97z" />
    <glyph glyph-name="Odotaccent" unicode="&#x1ecc;" horiz-adv-x="744" 
d="M372 -9q-71 0 -130.5 28t-102 75.5t-66 112.5t-23.5 139t23.5 139t66 112.5t102 75.5t130.5 28t130.5 -28t102 -75.5t66 -112.5t23.5 -139t-23.5 -139t-66 -112.5t-102 -75.5t-130.5 -28zM372 63q51 0 93.5 21t72.5 58.5t46.5 89.5t16.5 114t-16.5 114t-46.5 89.5
t-72.5 58.5t-93.5 21t-93.5 -21t-72.5 -58.5t-46.5 -89.5t-16.5 -114t16.5 -114t46.5 -89.5t72.5 -58.5t93.5 -21zM324 -147v97h97v-97h-97z" />
    <glyph glyph-name="odotaccent" unicode="&#x1ecd;" horiz-adv-x="570" 
d="M285 -10q-56 0 -100.5 22t-75.5 58t-47.5 83t-16.5 97t16.5 97t47.5 83t75.5 58t100.5 22t100.5 -22t75.5 -58t47.5 -83t16.5 -97t-16.5 -97t-47.5 -83t-75.5 -58t-100.5 -22zM285 56q72 0 111 55.5t39 138.5t-39 138.5t-111 55.5t-111 -55.5t-39 -138.5t39 -138.5
t111 -55.5zM238 -147v97h97v-97h-97z" />
    <glyph glyph-name="Udotaccent" unicode="&#x1ee4;" horiz-adv-x="682" 
d="M510 260v430h86v-415q0 -146 -68 -215.5t-187 -69.5t-187 69.5t-68 215.5v415h86v-430q0 -90 39.5 -144t129.5 -54t129.5 54t39.5 144zM293 -147v97h97v-97h-97z" />
    <glyph glyph-name="udotaccent" unicode="&#x1ee5;" horiz-adv-x="540" 
d="M155 190q0 -62 27 -96.5t86 -34.5q63 0 88 35t25 88v318h83v-500h-80v98h-2q-19 -51 -54.5 -79.5t-88.5 -28.5q-41 0 -72.5 13.5t-52.5 36.5t-31.5 54.5t-10.5 66.5v339h83v-310zM202 -147v97h97v-97h-97z" />
    <glyph glyph-name="Ygrave" unicode="&#x1ef2;" horiz-adv-x="618" 
d="M352 306v-306h-86v306l-257 384h97l203 -303l203 303h97zM366 740h-78l-148 135h121z" />
    <glyph glyph-name="ygrave" unicode="&#x1ef3;" horiz-adv-x="526" 
d="M512 500l-240 -670h-86l79 220h-82l-164 450h86l162 -444l159 444h86zM338 555h-78l-148 135h121z" />
    <glyph glyph-name="endash" unicode="&#x2013;" horiz-adv-x="498" 
d="M430 227h-362v66h362v-66z" />
    <glyph glyph-name="emdash" unicode="&#x2014;" horiz-adv-x="797" 
d="M729 227h-661v66h661v-66z" />
    <glyph glyph-name="quoteleft" unicode="&#x2018;" horiz-adv-x="231" 
d="M191 690l-73 -115h38v-97h-97v97l73 115h59z" />
    <glyph glyph-name="quoteright" unicode="&#x2019;" horiz-adv-x="229" 
d="M50 478l73 115h-38v97h97v-97l-73 -115h-59z" />
    <glyph glyph-name="quotesinglbase" unicode="&#x201a;" horiz-adv-x="234" 
d="M34 -115l73 115h-38v97h97v-97l-73 -115h-59z" />
    <glyph glyph-name="quotedblleft" unicode="&#x201c;" horiz-adv-x="388" 
d="M191 690l-73 -115h38v-97h-97v97l73 115h59zM348 690l-73 -115h38v-97h-97v97l73 115h59z" />
    <glyph glyph-name="quotedblright" unicode="&#x201d;" horiz-adv-x="386" 
d="M207 478l73 115h-38v97h97v-97l-73 -115h-59zM50 478l73 115h-38v97h97v-97l-73 -115h-59z" />
    <glyph glyph-name="quotedblbase" unicode="&#x201e;" horiz-adv-x="391" 
d="M34 -115l73 115h-38v97h97v-97l-73 -115h-59zM191 -115l73 115h-38v97h97v-97l-73 -115h-59z" />
    <glyph glyph-name="dagger" unicode="&#x2020;" horiz-adv-x="523" 
d="M475 434h-172v-434h-83v434h-172v66h172v190h83v-190h172v-66z" />
    <glyph glyph-name="daggerdbl" unicode="&#x2021;" horiz-adv-x="523" 
d="M475 234h-172v-234h-83v234h-172v66h172v134h-172v66h172v190h83v-190h172v-66h-172v-134h172v-66z" />
    <glyph glyph-name="bullet" unicode="&#x2022;" horiz-adv-x="414" 
d="M207 128q-54 0 -93 39t-39 93t39 93t93 39t93 -39t39 -93t-39 -93t-93 -39z" />
    <glyph glyph-name="ellipsis" unicode="&#x2026;" horiz-adv-x="699" 
d="M68 0v97h97v-97h-97zM301 0v97h97v-97h-97zM534 0v97h97v-97h-97z" />
    <glyph glyph-name="perthousand" unicode="&#x2030;" horiz-adv-x="1240" 
d="M190 310q-38 0 -67.5 15.5t-49.5 42t-30.5 62t-10.5 75.5t10.5 76t30.5 62t49.5 41.5t67.5 15.5t68 -15.5t50 -41.5t30.5 -62t10.5 -76t-10.5 -75.5t-30.5 -62t-50 -42t-68 -15.5zM295 0h-72l351 690h72zM190 359q43 0 65.5 40.5t22.5 105.5t-22.5 105.5t-65.5 40.5
t-65 -40.5t-22 -105.5t22 -105.5t65 -40.5zM1049 -10q-38 0 -67.5 15.5t-49.5 42t-30.5 62t-10.5 75.5t10.5 76t30.5 62t49.5 41.5t67.5 15.5t68 -15.5t50 -41.5t30.5 -62t10.5 -76t-10.5 -75.5t-30.5 -62t-50 -42t-68 -15.5zM679 -10q-38 0 -67.5 15.5t-49.5 42t-30.5 62
t-10.5 75.5t10.5 76t30.5 62t49.5 41.5t67.5 15.5t68 -15.5t50 -41.5t30.5 -62t10.5 -76t-10.5 -75.5t-30.5 -62t-50 -42t-68 -15.5zM1049 39q43 0 65.5 40.5t22.5 105.5t-22.5 105.5t-65.5 40.5t-65 -40.5t-22 -105.5t22 -105.5t65 -40.5zM679 39q43 0 65.5 40.5
t22.5 105.5t-22.5 105.5t-65.5 40.5t-65 -40.5t-22 -105.5t22 -105.5t65 -40.5z" />
    <glyph glyph-name="guilsinglleft" unicode="&#x2039;" horiz-adv-x="326" 
d="M37 263l144 199h101l-150 -199l150 -209h-101z" />
    <glyph glyph-name="guilsinglright" unicode="&#x203a;" horiz-adv-x="326" 
d="M145 462l144 -199l-144 -209h-101l150 209l-150 199h101z" />
    <glyph glyph-name="euro" unicode="&#x20ac;" horiz-adv-x="779" 
d="M729 244q-19 -115 -92.5 -184.5t-191.5 -69.5q-105 0 -180.5 68.5t-100.5 181.5h-135l30 66h95q-1 10 -1 19.5v19.5v12.5t1 12.5h-95l30 66h73q11 57 36 105.5t61 83.5t82 55t100 20q116 0 190 -70.5t93 -185.5h-89q-16 87 -63.5 135.5t-126.5 48.5q-75 0 -124.5 -52.5
t-66.5 -139.5h292l-30 -66h-269q-1 -6 -1 -12v-13v-19.5t1 -19.5h269l-30 -66h-229q20 -82 70.5 -130t124.5 -48q77 0 124.5 47.5t63.5 134.5h89z" />
    <glyph glyph-name="uni2117" unicode="&#x2117;" horiz-adv-x="806" 
d="M403 -10q-73 0 -138 28t-113 76t-76 113t-28 138t28 138t76 113t113 76t138 28t138 -28t113 -76t76 -113t28 -138t-28 -138t-76 -113t-113 -76t-138 -28zM403 55q60 0 113 23t92 62t62 92t23 113t-23 113t-62 92t-92 62t-113 23t-113 -23t-92 -62t-62 -92t-23 -113
t23 -113t62 -92t92 -62t113 -23zM402 299h-50v-165h-73v425h123q92 0 138 -33t46 -97t-46 -97t-138 -33zM408 357q56 0 77.5 18.5t21.5 53.5t-21.5 53.5t-77.5 18.5h-56v-144h56z" />
    <glyph glyph-name="trademark" unicode="&#x2122;" horiz-adv-x="760" 
d="M310 641h-109v-267h-60v267h-109v49h278v-49zM340 690h114l57 -290l57 290h114v-316h-60v290l-57 -290h-108l-57 290v-290h-60v316z" />
    <glyph glyph-name="arrowleft" unicode="&#x2190;" horiz-adv-x="720" 
d="M405 95h-107l-250 250l250 250h107l-228 -214h489v-72h-489z" />
    <glyph glyph-name="arrowup" unicode="&#x2191;" horiz-adv-x="720" 
d="M110 283v107l250 250l250 -250v-107l-214 228v-489h-72v489z" />
    <glyph glyph-name="arrowright" unicode="&#x2192;" horiz-adv-x="720" 
d="M315 595h107l250 -250l-250 -250h-107l228 214h-489v72h489z" />
    <glyph glyph-name="arrowdown" unicode="&#x2193;" horiz-adv-x="720" 
d="M610 407v-107l-250 -250l-250 250v107l214 -228v489h72v-489z" />
    <glyph glyph-name="arrowupleft" unicode="&#x2196;" horiz-adv-x="720" 
d="M212 136l-72 76v353h353l76 -72h-306l339 -339l-51 -51l-339 339v-306z" />
    <glyph glyph-name="arrowupright" unicode="&#x2197;" horiz-adv-x="720" 
d="M151 493l76 72h353v-353l-72 -76v306l-339 -339l-51 51l339 339h-306z" />
    <glyph glyph-name="arrowdownright" unicode="&#x2198;" horiz-adv-x="720" 
d="M580 456v-353h-353l-76 72h306l-339 339l51 51l339 -339v306z" />
    <glyph glyph-name="arrowdownleft" unicode="&#x2199;" horiz-adv-x="720" 
d="M569 175l-76 -72h-353v353l72 76v-306l339 339l51 -51l-339 -339h306z" />
    <glyph glyph-name="minus" unicode="&#x2212;" 
d="M510 237h-460v66h460v-66z" />
    <glyph glyph-name="notequal" unicode="&#x2260;" 
d="M510 154h-265l-74 -114h-81l74 114h-114v66h157l66 100h-223v66h266l74 114h81l-74 -114h113v-66h-156l-66 -100h222v-66z" />
    <glyph glyph-name="lessequal" unicode="&#x2264;" 
d="M491 212v-68l-427 140v76l427 140v-68l-335 -110zM491 106v-66h-427v66h427z" />
    <glyph glyph-name="greaterequal" unicode="&#x2265;" 
d="M69 144v68l335 110l-335 110v68l427 -140v-76zM69 40v66h427v-66h-427z" />
    <glyph glyph-name="uni25A0" unicode="&#x25a0;" horiz-adv-x="650" 
d="M75 0v500h500v-500h-500z" />
    <glyph glyph-name="uni25A1" unicode="&#x25a1;" horiz-adv-x="650" 
d="M75 0v500h500v-500h-500zM141 66h368v368h-368v-368z" />
    <glyph glyph-name="uni25CB" unicode="&#x25cb;" horiz-adv-x="650" 
d="M325 -10q-53 0 -100.5 20.5t-83 56t-56 83t-20.5 100.5t20.5 100.5t56 83t83 56t100.5 20.5t100.5 -20.5t83 -56t56 -83t20.5 -100.5t-20.5 -100.5t-56 -83t-83 -56t-100.5 -20.5zM325 56q40 0 75 15.5t61.5 42t42 61.5t15.5 75t-15.5 75t-42 61.5t-61.5 42t-75 15.5
t-75 -15.5t-61.5 -42t-42 -61.5t-15.5 -75t15.5 -75t42 -61.5t61.5 -42t75 -15.5z" />
    <glyph glyph-name="uni25CF" unicode="&#x25cf;" horiz-adv-x="650" 
d="M325 -10q-53 0 -100.5 20.5t-83 56t-56 83t-20.5 100.5t20.5 100.5t56 83t83 56t100.5 20.5t100.5 -20.5t83 -56t56 -83t20.5 -100.5t-20.5 -100.5t-56 -83t-83 -56t-100.5 -20.5z" />
    <glyph glyph-name="CR" horiz-adv-x="246" 
 />
    <glyph glyph-name="zeroslashed" horiz-adv-x="639" 
d="M319 -10q-62 0 -111.5 26t-83.5 72.5t-52 112t-18 144.5t18 144.5t52 112t83.5 72.5t111.5 26t112 -26t84 -72.5t52 -112t18 -144.5t-18 -144.5t-52 -112t-84 -72.5t-112 -26zM144 345q0 -45 5 -84t15 -71l267 392q-21 25 -49.5 38.5t-62.5 13.5q-84 0 -129.5 -78
t-45.5 -211zM495 345q0 45 -5.5 84.5t-15.5 71.5l-267 -392q21 -25 49.5 -39t62.5 -14q84 0 130 78.5t46 210.5z" />
    <glyph glyph-name="one.ss01" horiz-adv-x="366" 
d="M273 0h-83v518h-165v66h50q77 0 101.5 27.5t29.5 70.5l1 8h66v-690z" />
    <glyph glyph-name="at.ss02" horiz-adv-x="893" 
d="M694 55q10 0 24.5 3.5t27.5 18.5t22.5 46t9.5 87q0 69 -26.5 130.5t-72 106.5t-106.5 71.5t-129 26.5t-129.5 -26.5t-107 -71.5t-72 -106.5t-26.5 -130.5t26.5 -130.5t72 -106.5t107 -71.5t129.5 -26.5q43 0 83.5 12.5t75.5 31.5l34 -59q-43 -24 -92 -37t-101 -13
q-82 0 -155 31.5t-127.5 86t-86 127.5t-31.5 155t31.5 155t86 127.5t127.5 86t155 31.5t155 -31.5t127 -86t85.5 -127.5t31.5 -155q0 -65 -14 -107.5t-35.5 -67.5t-48 -35t-51.5 -10q-54 0 -91 28t-47 68h-2q-18 -47 -56.5 -74.5t-90.5 -27.5q-47 0 -82.5 19t-59 50.5
t-35.5 73t-12 86.5q0 46 12 87.5t35.5 73t59 50t82.5 18.5q52 0 90.5 -27.5t56.5 -74.5h2v93h73v-310q0 -37 22 -52.5t43 -15.5zM297 213q0 -72 34.5 -121.5t97.5 -49.5t96.5 49.5t33.5 121.5q0 73 -33.5 122t-96.5 49t-97.5 -49t-34.5 -122z" />
    <glyph glyph-name="asterisk.ss08" horiz-adv-x="418" 
d="M314 394l-83 83v-107h-44v107l-83 -83l-31 31l83 83h-107v44h107l-83 83l31 31l83 -83v107h44v-107l83 83l31 -31l-83 -83h107v-44h-107l83 -83z" />
    <glyph glyph-name="hyphen.case" horiz-adv-x="413" 
d="M345 313h-277v66h277v-66z" />
    <glyph glyph-name="endash.case" horiz-adv-x="498" 
d="M430 313h-362v66h362v-66z" />
    <glyph glyph-name="emdash.case" horiz-adv-x="797" 
d="M729 313h-661v66h661v-66z" />
    <glyph glyph-name="question.case" horiz-adv-x="500" 
d="M188 200q0 38 6 65.5t18 49t31 40t44 37.5l45 34q24 18 38.5 39.5t14.5 47.5q0 49 -33.5 85t-103.5 36q-39 0 -66 -13.5t-43.5 -35t-24 -49.5t-7.5 -57h-83q0 57 18.5 99t49.5 69t71.5 40t84.5 13q49 0 90.5 -12.5t71.5 -35t47 -56t17 -75.5q0 -54 -24.5 -86t-60.5 -60
l-45 -34q-43 -32 -58 -62t-15 -79h-83zM181 0v97h97v-97h-97z" />
    <glyph glyph-name="questiondown.case" horiz-adv-x="499" 
d="M320 690v-97h-97v97h97zM313 490q0 -38 -6 -65.5t-18 -49t-31 -40t-44 -37.5l-45 -34q-24 -18 -38.5 -39.5t-14.5 -47.5q0 -49 33.5 -85t103.5 -36q39 0 66 13.5t43.5 35t24 49.5t7.5 57h83q0 -57 -18.5 -99t-49.5 -69t-71.5 -40t-84.5 -13q-49 0 -90.5 12.5t-71.5 35
t-47 56t-17 75.5q0 54 24.5 86t60.5 60l45 34q43 32 58 62t15 79h83z" />
    <glyph glyph-name="exclam.case" horiz-adv-x="255" 
d="M152 221h-49l-29 469h107zM79 0v97h97v-97h-97z" />
    <glyph glyph-name="exclamdown.case" horiz-adv-x="255" 
d="M79 593v97h97v-97h-97zM103 469h49l29 -469h-107z" />
    <glyph glyph-name="guilsinglleft.case" horiz-adv-x="325" 
d="M36 346l144 199h101l-150 -199l150 -209h-101z" />
    <glyph glyph-name="guilsinglright.case" horiz-adv-x="325" 
d="M145 545l144 -199l-144 -209h-101l150 209l-150 199h101z" />
    <glyph glyph-name="guillemotleft.case" horiz-adv-x="531" 
d="M36 346l144 199h101l-150 -199l150 -209h-101zM242 346l144 199h101l-150 -199l150 -209h-101z" />
    <glyph glyph-name="guillemotright.case" horiz-adv-x="531" 
d="M351 545l144 -199l-144 -209h-101l150 209l-150 199h101zM145 545l144 -199l-144 -209h-101l150 209l-150 199h101z" />
    <glyph glyph-name="parenleft.case" horiz-adv-x="290" 
d="M52 345q0 108 37 200.5t81 144.5h82q-40 -67 -73.5 -144.5t-33.5 -200.5t33.5 -200.5t73.5 -144.5h-82q-44 52 -81 144.5t-37 200.5z" />
    <glyph glyph-name="parenright.case" horiz-adv-x="290" 
d="M120 690q44 -52 81 -144.5t37 -200.5t-37 -200.5t-81 -144.5h-82q40 67 73.5 144.5t33.5 200.5t-33.5 200.5t-73.5 144.5h82z" />
    <glyph glyph-name="bracketleft.case" horiz-adv-x="328" 
d="M87 0v690h202v-72h-116v-546h116v-72h-202z" />
    <glyph glyph-name="bracketright.case" horiz-adv-x="328" 
d="M241 690v-690h-202v72h116v546h-116v72h202z" />
    <glyph glyph-name="braceleft.case" horiz-adv-x="326" 
d="M38 388q56 2 72.5 25.5t16.5 69.5q0 87 24 131t55 76h82q-31 -40 -49.5 -85.5t-18.5 -121.5q0 -66 -33.5 -98t-79.5 -39v-2q46 -7 79.5 -39t33.5 -98q0 -76 18.5 -121.5t49.5 -85.5h-82q-31 32 -55 76t-24 131q0 46 -16.5 69.5t-72.5 25.5v86z" />
    <glyph glyph-name="braceright.case" horiz-adv-x="326" 
d="M199 483q0 -46 16.5 -69.5t72.5 -25.5v-86q-56 -2 -72.5 -25.5t-16.5 -69.5q0 -87 -24 -131t-55 -76h-82q31 40 49.5 85.5t18.5 121.5q0 66 33.5 98t79.5 39v2q-46 7 -79.5 39t-33.5 98q0 76 -18.5 121.5t-49.5 85.5h82q31 -32 55 -76t24 -131z" />
    <glyph glyph-name="bar.case" horiz-adv-x="260" 
d="M87 -60v810h86v-810h-86z" />
    <glyph glyph-name="brokenbar.case" horiz-adv-x="268" 
d="M91 454v296h86v-296h-86zM91 -60v296h86v-296h-86z" />
    <glyph glyph-name="periodcentered.case" horiz-adv-x="233" 
d="M68 300v97h97v-97h-97z" />
    <glyph glyph-name="bullet.case" horiz-adv-x="362" 
d="M181 216q-54 0 -93 39t-39 93t39 93t93 39t93 -39t39 -93t-39 -93t-93 -39z" />
    <glyph glyph-name="at.case" horiz-adv-x="834" 
d="M233 170l119 405h148l97 -331h36q49 0 73.5 30t24.5 72q0 63 -24 118.5t-65.5 96.5t-97 65t-118.5 24t-119 -24t-97.5 -65t-65.5 -96.5t-24 -118.5t24 -119t65.5 -97.5t97.5 -65.5t119 -24q43 0 83.5 11.5t75.5 33.5l37 -65q-43 -26 -92.5 -40.5t-103.5 -14.5
q-78 0 -148 30t-121.5 81.5t-81.5 121.5t-30 148t30 147.5t81.5 120.5t121.5 81t148 30t147.5 -30t121 -81t81.5 -120.5t30 -147.5q0 -77 -47.5 -126.5t-125.5 -49.5h-93l-28 95h-172l-28 -95h-79zM426 562l-67 -229h134z" />
    <glyph glyph-name="K.ss06" horiz-adv-x="612" 
d="M179 370v-370h-86v690h86v-316h103l221 316h95l-223 -319h-87l320 -371h-110z" />
    <glyph glyph-name="Kcommaaccent.ss06" horiz-adv-x="612" 
d="M179 370v-370h-86v690h86v-316h103l221 316h95l-223 -319h-87l320 -371h-110zM247 -245l69 98h-38v97h97v-97l-69 -98h-59z" />
    <glyph glyph-name="Tcedilla" horiz-adv-x="574" 
d="M12 618v72h550v-72h-232v-618h-86v618h-232zM208 -245l69 98h-38v97h97v-97l-69 -98h-59z" />
    <glyph glyph-name="X.ss07" horiz-adv-x="672" 
d="M565 0l-229 360l-229 -360h-99l231 363l-206 327h99l204 -324l204 324h99l-206 -327l231 -363h-99z" />
    <glyph glyph-name="a.ss02" horiz-adv-x="590" 
d="M47 250q0 51 13.5 98.5t40.5 83t67.5 57t93.5 21.5q59 0 102.5 -31t64.5 -85h2v106h83v-500h-83v106h-2q-21 -54 -64.5 -85t-102.5 -31q-53 0 -93.5 21.5t-67.5 57t-40.5 83t-13.5 98.5zM137 250q0 -83 39 -138.5t111 -55.5t110 55.5t38 138.5t-38 138.5t-110 55.5
t-111 -55.5t-39 -138.5z" />
    <glyph glyph-name="aacute.ss02" horiz-adv-x="590" 
d="M47 250q0 51 13.5 98.5t40.5 83t67.5 57t93.5 21.5q59 0 102.5 -31t64.5 -85h2v106h83v-500h-83v106h-2q-21 -54 -64.5 -85t-102.5 -31q-53 0 -93.5 21.5t-67.5 57t-40.5 83t-13.5 98.5zM137 250q0 -83 39 -138.5t111 -55.5t110 55.5t38 138.5t-38 138.5t-110 55.5
t-111 -55.5t-39 -138.5zM312 555h-78l105 135h121z" />
    <glyph glyph-name="agrave.ss02" horiz-adv-x="590" 
d="M47 250q0 51 13.5 98.5t40.5 83t67.5 57t93.5 21.5q59 0 102.5 -31t64.5 -85h2v106h83v-500h-83v106h-2q-21 -54 -64.5 -85t-102.5 -31q-53 0 -93.5 21.5t-67.5 57t-40.5 83t-13.5 98.5zM137 250q0 -83 39 -138.5t111 -55.5t110 55.5t38 138.5t-38 138.5t-110 55.5
t-111 -55.5t-39 -138.5zM361 555h-78l-148 135h121z" />
    <glyph glyph-name="acircumflex.ss02" horiz-adv-x="590" 
d="M47 250q0 51 13.5 98.5t40.5 83t67.5 57t93.5 21.5q59 0 102.5 -31t64.5 -85h2v106h83v-500h-83v106h-2q-21 -54 -64.5 -85t-102.5 -31q-53 0 -93.5 21.5t-67.5 57t-40.5 83t-13.5 98.5zM137 250q0 -83 39 -138.5t111 -55.5t110 55.5t38 138.5t-38 138.5t-110 55.5
t-111 -55.5t-39 -138.5zM355 555l-71 93l-71 -93h-98l124 135h90l124 -135h-98z" />
    <glyph glyph-name="adieresis.ss02" horiz-adv-x="590" 
d="M47 250q0 51 13.5 98.5t40.5 83t67.5 57t93.5 21.5q59 0 102.5 -31t64.5 -85h2v106h83v-500h-83v106h-2q-21 -54 -64.5 -85t-102.5 -31q-53 0 -93.5 21.5t-67.5 57t-40.5 83t-13.5 98.5zM137 250q0 -83 39 -138.5t111 -55.5t110 55.5t38 138.5t-38 138.5t-110 55.5
t-111 -55.5t-39 -138.5zM153 575v97h97v-97h-97zM335 575v97h97v-97h-97z" />
    <glyph glyph-name="atilde.ss02" horiz-adv-x="590" 
d="M47 250q0 51 13.5 98.5t40.5 83t67.5 57t93.5 21.5q59 0 102.5 -31t64.5 -85h2v106h83v-500h-83v106h-2q-21 -54 -64.5 -85t-102.5 -31q-53 0 -93.5 21.5t-67.5 57t-40.5 83t-13.5 98.5zM137 250q0 -83 39 -138.5t111 -55.5t110 55.5t38 138.5t-38 138.5t-110 55.5
t-111 -55.5t-39 -138.5zM441 602q-22 -19 -41 -27.5t-41 -8.5q-21 0 -38 8t-32 17.5t-29.5 17.5t-32.5 8q-22 0 -41 -8.5t-41 -27.5v63q22 19 41 27.5t41 8.5q21 0 38 -8t32 -17.5t29.5 -17.5t32.5 -8q22 0 41 8.5t41 27.5v-63z" />
    <glyph glyph-name="abreve.ss02" horiz-adv-x="590" 
d="M47 250q0 51 13.5 98.5t40.5 83t67.5 57t93.5 21.5q59 0 102.5 -31t64.5 -85h2v106h83v-500h-83v106h-2q-21 -54 -64.5 -85t-102.5 -31q-53 0 -93.5 21.5t-67.5 57t-40.5 83t-13.5 98.5zM137 250q0 -83 39 -138.5t111 -55.5t110 55.5t38 138.5t-38 138.5t-110 55.5
t-111 -55.5t-39 -138.5zM279 605q30 0 50 19t20 66h63q0 -54 -31.5 -94.5t-101.5 -40.5t-101.5 40.5t-31.5 94.5h63q0 -47 20 -66t50 -19z" />
    <glyph glyph-name="aring.ss02" horiz-adv-x="590" 
d="M47 250q0 51 13.5 98.5t40.5 83t67.5 57t93.5 21.5q59 0 102.5 -31t64.5 -85h2v106h83v-500h-83v106h-2q-21 -54 -64.5 -85t-102.5 -31q-53 0 -93.5 21.5t-67.5 57t-40.5 83t-13.5 98.5zM137 250q0 -83 39 -138.5t111 -55.5t110 55.5t38 138.5t-38 138.5t-110 55.5
t-111 -55.5t-39 -138.5zM276 550q-30 0 -51 20.5t-21 51.5t21 51.5t51 20.5q29 0 50.5 -20.5t21.5 -51.5t-21.5 -51.5t-50.5 -20.5zM276 594q11 0 19.5 7.5t8.5 20.5t-8.5 20.5t-19.5 7.5t-19.5 -7.5t-8.5 -20.5t8.5 -20.5t19.5 -7.5z" />
    <glyph glyph-name="amacron.ss02" horiz-adv-x="590" 
d="M47 250q0 51 13.5 98.5t40.5 83t67.5 57t93.5 21.5q59 0 102.5 -31t64.5 -85h2v106h83v-500h-83v106h-2q-21 -54 -64.5 -85t-102.5 -31q-53 0 -93.5 21.5t-67.5 57t-40.5 83t-13.5 98.5zM137 250q0 -83 39 -138.5t111 -55.5t110 55.5t38 138.5t-38 138.5t-110 55.5
t-111 -55.5t-39 -138.5zM130 590v66h301v-66h-301z" />
    <glyph glyph-name="aogonek.ss02" horiz-adv-x="590" 
d="M47 250q0 51 13.5 98.5t40.5 83t67.5 57t93.5 21.5q59 0 102.5 -31t64.5 -85h2v106h83v-500h-83v106h-2q-21 -54 -64.5 -85t-102.5 -31q-53 0 -93.5 21.5t-67.5 57t-40.5 83t-13.5 98.5zM137 250q0 -83 39 -138.5t111 -55.5t110 55.5t38 138.5t-38 138.5t-110 55.5
t-111 -55.5t-39 -138.5zM431 0h83q-32 -13 -57.5 -31t-25.5 -44q0 -25 16.5 -33.5t49.5 -8.5h17v-53h-26q-50 0 -90 16t-40 64q0 34 20.5 56t52.5 34z" />
    <glyph glyph-name="g.ss03" horiz-adv-x="590" 
d="M514 -58q0 -54 -26.5 -83t-89.5 -29h-269v66h246q31 0 43.5 13t12.5 42v155h-2q-21 -54 -64.5 -85t-102.5 -31q-53 0 -93.5 21.5t-67.5 57t-40.5 83t-13.5 98.5t13.5 98.5t40.5 83t67.5 57t93.5 21.5q59 0 102.5 -31t64.5 -85h2v106h83v-558zM137 250q0 -83 39 -138.5
t111 -55.5t110 55.5t38 138.5t-38 138.5t-110 55.5t-111 -55.5t-39 -138.5z" />
    <glyph glyph-name="gcircumflex.ss03" horiz-adv-x="590" 
d="M514 -58q0 -54 -26.5 -83t-89.5 -29h-269v66h246q31 0 43.5 13t12.5 42v155h-2q-21 -54 -64.5 -85t-102.5 -31q-53 0 -93.5 21.5t-67.5 57t-40.5 83t-13.5 98.5t13.5 98.5t40.5 83t67.5 57t93.5 21.5q59 0 102.5 -31t64.5 -85h2v106h83v-558zM137 250q0 -83 39 -138.5
t111 -55.5t110 55.5t38 138.5t-38 138.5t-110 55.5t-111 -55.5t-39 -138.5zM363 555l-71 93l-71 -93h-98l124 135h90l124 -135h-98z" />
    <glyph glyph-name="gbreve.ss03" horiz-adv-x="590" 
d="M514 -58q0 -54 -26.5 -83t-89.5 -29h-269v66h246q31 0 43.5 13t12.5 42v155h-2q-21 -54 -64.5 -85t-102.5 -31q-53 0 -93.5 21.5t-67.5 57t-40.5 83t-13.5 98.5t13.5 98.5t40.5 83t67.5 57t93.5 21.5q59 0 102.5 -31t64.5 -85h2v106h83v-558zM137 250q0 -83 39 -138.5
t111 -55.5t110 55.5t38 138.5t-38 138.5t-110 55.5t-111 -55.5t-39 -138.5zM294 605q30 0 50 19t20 66h63q0 -54 -31.5 -94.5t-101.5 -40.5t-101.5 40.5t-31.5 94.5h63q0 -47 20 -66t50 -19z" />
    <glyph glyph-name="gdotaccent.ss03" horiz-adv-x="590" 
d="M514 -58q0 -54 -26.5 -83t-89.5 -29h-269v66h246q31 0 43.5 13t12.5 42v155h-2q-21 -54 -64.5 -85t-102.5 -31q-53 0 -93.5 21.5t-67.5 57t-40.5 83t-13.5 98.5t13.5 98.5t40.5 83t67.5 57t93.5 21.5q59 0 102.5 -31t64.5 -85h2v106h83v-558zM137 250q0 -83 39 -138.5
t111 -55.5t110 55.5t38 138.5t-38 138.5t-110 55.5t-111 -55.5t-39 -138.5zM236 575v97h97v-97h-97z" />
    <glyph glyph-name="gcommaaccent.ss03" horiz-adv-x="590" 
d="M514 -58q0 -54 -26.5 -83t-89.5 -29h-269v66h246q31 0 43.5 13t12.5 42v155h-2q-21 -54 -64.5 -85t-102.5 -31q-53 0 -93.5 21.5t-67.5 57t-40.5 83t-13.5 98.5t13.5 98.5t40.5 83t67.5 57t93.5 21.5q59 0 102.5 -31t64.5 -85h2v106h83v-558zM137 250q0 -83 39 -138.5
t111 -55.5t110 55.5t38 138.5t-38 138.5t-110 55.5t-111 -55.5t-39 -138.5z" />
    <glyph glyph-name="k.ss04" horiz-adv-x="511" 
d="M159 296v-296h-83v690h83v-390h97l139 200h93l-142 -204h-85l246 -296h-102z" />
    <glyph glyph-name="kcommaaccent.ss04" horiz-adv-x="511" 
d="M159 296v-296h-83v690h83v-390h97l139 200h93l-142 -204h-85l246 -296h-102zM194 -245l69 98h-38v97h97v-97l-69 -98h-59z" />
    <glyph glyph-name="tcommaaccent" horiz-adv-x="346" 
d="M112 434h-91v66h91v114h83v-114h127v-66h-127v-313q0 -29 12.5 -42t43.5 -13h67v-66h-90q-63 0 -89.5 29t-26.5 83v322zM110 -245l69 98h-38v97h97v-97l-69 -98h-59z" />
    <glyph glyph-name="x.ss05" horiz-adv-x="521" 
d="M407 0l-146 257l-147 -257h-95l152 261l-137 239h95l132 -235l131 235h95l-137 -239l152 -261h-95z" />
    <glyph glyph-name="period.tf" horiz-adv-x="595" 
d="M249 0v97h97v-97h-97z" />
    <glyph glyph-name="hyphen.tf" horiz-adv-x="595" 
d="M436 313h-277v66h277v-66z" />
    <glyph glyph-name="endash.tf" horiz-adv-x="595" 
d="M478 313h-362v66h362v-66z" />
    <glyph glyph-name="colon.tf" horiz-adv-x="595" 
d="M249 403v97h97v-97h-97zM249 0v97h97v-97h-97z" />
    <glyph glyph-name="slash.tf" horiz-adv-x="595" 
d="M193 0h-87l295 690h87z" />
    <glyph glyph-name="zero.tf" horiz-adv-x="595" 
d="M297 -10q-62 0 -111.5 26t-83.5 72.5t-52 112t-18 144.5t18 144.5t52 112t83.5 72.5t111.5 26t112 -26t84 -72.5t52 -112t18 -144.5t-18 -144.5t-52 -112t-84 -72.5t-112 -26zM297 56q84 0 130 78.5t46 210.5t-46 210.5t-130 78.5t-129.5 -78t-45.5 -211t45.5 -211
t129.5 -78z" />
    <glyph glyph-name="zeroslashed.tf" horiz-adv-x="595" 
d="M297 -10q-62 0 -111.5 26t-83.5 72.5t-52 112t-18 144.5t18 144.5t52 112t83.5 72.5t111.5 26t112 -26t84 -72.5t52 -112t18 -144.5t-18 -144.5t-52 -112t-84 -72.5t-112 -26zM122 345q0 -45 5 -84t15 -71l267 392q-21 25 -49.5 38.5t-62.5 13.5q-84 0 -129.5 -78
t-45.5 -211zM473 345q0 45 -5.5 84.5t-15.5 71.5l-267 -392q21 -25 49.5 -39t62.5 -14q84 0 130 78.5t46 210.5z" />
    <glyph glyph-name="one.tf" horiz-adv-x="595" 
d="M511 66v-66h-392v66h165v452h-165v66h50q77 0 101.5 27.5t29.5 70.5l1 8h66v-624h144z" />
    <glyph glyph-name="two.tf" horiz-adv-x="595" 
d="M528 0h-464v56l273 277q26 27 45 47.5t30.5 38t16.5 35t5 39.5q0 25 -8 50.5t-25.5 45.5t-44.5 32.5t-64 12.5q-66 0 -103 -43.5t-37 -120.5h-83q0 56 18.5 99t49 72t71 44t84.5 15q54 0 97 -16.5t72 -44t44.5 -63t15.5 -73.5q0 -32 -9.5 -60t-28.5 -56t-48 -59.5
t-68 -71.5l-187 -190h348v-66z" />
    <glyph glyph-name="three.tf" horiz-adv-x="595" 
d="M297 -10q-45 0 -85 14t-71 41.5t-51 68.5t-26 94h83q4 -30 13 -58t27 -48.5t47 -33t71 -12.5q57 0 93 33.5t36 89.5q0 81 -53 111.5t-159 33.5v66q102 3 150.5 30.5t48.5 101.5q0 48 -32 80t-94 32q-66 0 -100 -36t-40 -98h-83q5 50 24.5 87.5t48.5 62.5t66.5 37.5
t77.5 12.5q98 0 160 -48.5t62 -136.5q0 -65 -47.5 -105.5t-113.5 -51.5v-2q35 -6 67 -18.5t55.5 -32.5t37.5 -49t14 -69q0 -47 -17.5 -83.5t-48 -61.5t-72.5 -38.5t-89 -13.5z" />
    <glyph glyph-name="four.tf" horiz-adv-x="595" 
d="M561 202h-100v-202h-83v202h-355v56l267 432h171v-422h100v-66zM119 268h259v418z" />
    <glyph glyph-name="five.tf" horiz-adv-x="595" 
d="M455 231q0 47 -14.5 80.5t-37.5 54.5t-52 30.5t-58 9.5q-46 0 -81 -19.5t-54 -65.5h-83v369h430v-66h-347v-249h2q22 46 63 72t98 26q43 0 83.5 -15.5t71.5 -46t50 -76t19 -104.5q0 -114 -68.5 -177.5t-177.5 -63.5q-99 0 -163.5 60t-74.5 161h83q3 -28 13.5 -56
t29.5 -50t47.5 -35.5t68.5 -13.5q63 0 107.5 44.5t44.5 130.5z" />
    <glyph glyph-name="six.tf" horiz-adv-x="595" 
d="M552 226q0 -57 -21.5 -101t-56.5 -74t-79.5 -45.5t-90.5 -15.5q-66 0 -115 26t-80.5 71.5t-47.5 107.5t-16 134q0 82 17 150.5t50 117t82 76t112 27.5q104 0 160.5 -56.5t66.5 -143.5h-83q-7 63 -42.5 98.5t-101.5 35.5q-84 0 -126.5 -76t-42.5 -220h2q22 54 68 87.5
t112 33.5q45 0 87.5 -15t74.5 -44.5t51.5 -73t19.5 -100.5zM141 230q0 -74 45.5 -124t112.5 -50q72 0 117.5 49t45.5 121t-45 119t-117 47t-115.5 -46.5t-43.5 -115.5z" />
    <glyph glyph-name="seven.tf" horiz-adv-x="595" 
d="M224 0h-84l292 624h-355v66h444v-56z" />
    <glyph glyph-name="eight.tf" horiz-adv-x="595" 
d="M298 -10q-49 0 -95.5 13.5t-82 38.5t-57 62.5t-21.5 85.5q0 39 15.5 69.5t38.5 52.5t50 35.5t51 19.5v2q-21 7 -44 19.5t-42 30.5t-31 43.5t-12 59.5q0 38 17.5 71t48 56.5t73 37t91.5 13.5t91.5 -13.5t73 -37t48 -56.5t17.5 -71q0 -34 -12 -59.5t-31 -43.5t-42 -30.5
t-44 -19.5v-2q24 -6 51 -19.5t50 -35.5t38.5 -52.5t15.5 -69.5q0 -48 -21.5 -85.5t-57 -62.5t-82 -38.5t-95.5 -13.5zM298 403q61 0 100.5 35.5t39.5 81.5t-37 80t-103 34t-103 -34t-37 -80t39.5 -81.5t100.5 -35.5zM298 56q71 0 118.5 40.5t47.5 100.5t-47.5 98t-118.5 38
t-118.5 -38t-47.5 -98t47.5 -100.5t118.5 -40.5z" />
    <glyph glyph-name="nine.tf" horiz-adv-x="595" 
d="M43 464q0 57 21.5 101t56.5 74t79.5 45.5t90.5 15.5q66 0 115 -26t80.5 -71.5t47.5 -107.5t16 -134q0 -82 -17 -150.5t-50 -117t-82 -76t-112 -27.5q-104 0 -160.5 56.5t-66.5 143.5h83q7 -63 42.5 -98.5t101.5 -35.5q84 0 126.5 76t42.5 220h-2q-22 -54 -68 -87.5
t-112 -33.5q-45 0 -87.5 15t-74.5 44.5t-51.5 73t-19.5 100.5zM454 460q0 74 -45.5 124t-112.5 50q-72 0 -117.5 -49t-45.5 -121t45 -119t117 -47t115.5 46.5t43.5 115.5z" />
    <glyph glyph-name="plus.case" 
d="M510 315h-197v-197h-66v197h-197v66h197v197h66v-197h197v-66z" />
    <glyph glyph-name="minus.case" 
d="M510 315h-460v66h460v-66z" />
    <glyph glyph-name="plusminus.case" 
d="M510 118h-460v66h197v164h-197v66h197v164h66v-164h197v-66h-197v-164h197v-66z" />
    <glyph glyph-name="divide.case" 
d="M232 481v97h97v-97h-97zM510 315h-460v66h460v-66zM232 118v97h97v-97h-97z" />
    <glyph glyph-name="multiply.case" 
d="M436 147l-156 157l-156 -156l-45 44l156 156l-156 156l45 44l156 -155l156 156l44 -45l-156 -156l156 -156z" />
    <glyph glyph-name="equal.case" 
d="M510 398h-460v66h460v-66zM510 232h-460v66h460v-66z" />
    <glyph glyph-name="notequal.case" 
d="M510 232h-265l-74 -114h-81l74 114h-114v66h157l66 100h-223v66h266l74 114h81l-74 -114h113v-66h-156l-66 -100h222v-66z" />
    <glyph glyph-name="less.case" 
d="M479 134l-427 176v76l427 176v-73l-342 -141l342 -141v-73z" />
    <glyph glyph-name="greater.case" 
d="M508 310l-427 -176v73l342 141l-342 141v73l427 -176v-76z" />
    <glyph glyph-name="lessequal.case" 
d="M489 290v-68l-427 140v76l427 140v-68l-335 -110zM489 184v-66h-427v66h427z" />
    <glyph glyph-name="greaterequal.case" 
d="M71 222v68l335 110l-335 110v68l427 -140v-76zM71 118v66h427v-66h-427z" />
    <glyph glyph-name="logicalnot.case" 
d="M492 205h-66v221h-394v66h460v-287z" />
    <glyph glyph-name="caron.slovak" horiz-adv-x="194" 
d="M77 526h-57l54 164h95z" />
    <glyph glyph-name="acute.case" horiz-adv-x="271" 
d="M98 740h-78l105 135h121z" />
    <glyph glyph-name="grave.case" horiz-adv-x="271" 
d="M251 740h-78l-148 135h121z" />
    <glyph glyph-name="circumflex.case" horiz-adv-x="388" 
d="M265 740l-71 93l-71 -93h-98l124 135h90l124 -135h-98z" />
    <glyph glyph-name="dieresis.case" horiz-adv-x="329" 
d="M25 759v97h97v-97h-97zM207 759v97h97v-97h-97z" />
    <glyph glyph-name="tilde.case" horiz-adv-x="346" 
d="M321 786q-22 -19 -41 -27.5t-41 -8.5q-21 0 -38 8t-32 17.5t-29.5 17.5t-32.5 8q-22 0 -41 -8.5t-41 -27.5v63q22 19 41 27.5t41 8.5q21 0 38 -8t32 -17.5t29.5 -17.5t32.5 -8q22 0 41 8.5t41 27.5v-63z" />
    <glyph glyph-name="caron.case" horiz-adv-x="388" 
d="M194 782l71 93h98l-124 -135h-90l-124 135h98z" />
    <glyph glyph-name="breve.case" horiz-adv-x="316" 
d="M158 790q30 0 50 19t20 66h63q0 -54 -31.5 -94.5t-101.5 -40.5t-101.5 40.5t-31.5 94.5h63q0 -47 20 -66t50 -19z" />
    <glyph glyph-name="hungarumlaut.case" horiz-adv-x="444" 
d="M98 740h-78l105 135h121zM271 740h-78l105 135h121z" />
    <glyph glyph-name="ring.case" horiz-adv-x="194" 
d="M97 735q-30 0 -51 20.5t-21 51.5t21 51.5t51 20.5q29 0 50.5 -20.5t21.5 -51.5t-21.5 -51.5t-50.5 -20.5zM97 779q11 0 19.5 7.5t8.5 20.5t-8.5 20.5t-19.5 7.5t-19.5 -7.5t-8.5 -20.5t8.5 -20.5t19.5 -7.5z" />
    <glyph glyph-name="dotaccent.case" horiz-adv-x="143" 
d="M25 759v97h97v-97h-97z" />
    <glyph glyph-name="macron.case" horiz-adv-x="351" 
d="M25 775v66h301v-66h-301z" />
    <glyph glyph-name="ogonek.case" horiz-adv-x="214" 
d="M98 0h91q-32 -13 -57.5 -29t-25.5 -44q0 -23 16.5 -29t49.5 -6h16v-62h-33q-50 0 -90 16t-40 64q0 34 20.5 56t52.5 34z" />
    <glyph glyph-name="apple" horiz-adv-x="734" 
d="M483 20l-100 241v-261h-33v256l-99 -239l-31 15l99 239l-184 -184l-23 25l184 184l-241 -100l-12 32l239 99h-260v34h261l-241 100l13 31l241 -100l-185 185l24 23l184 -184l-100 241l31 13l100 -242v262h33v-265l101 244l31 -14l-99 -239l184 184l23 -25l-182 -182
l239 99l12 -32l-239 -99h259v-34h-258l239 -99l-14 -31l-241 100l185 -185l-24 -23l-185 185l100 -242z" />
    </font>
</defs>
</svg>
